<svg xmlns="http://www.w3.org/2000/svg" version="1.1" xmlns:xlink="http://www.w3.org/1999/xlink" xmlns:svgjs="http://svgjs.dev/svgjs" viewBox="0 0 800 800"><defs><linearGradient x1="50%" y1="0%" x2="50%" y2="100%" id="gggyrate-grad"><stop stop-color="hsl(265, 55%, 30%)" stop-opacity="1" offset="0%"></stop><stop stop-color="hsl(265, 55%, 60%)" stop-opacity="1" offset="100%"></stop></linearGradient></defs><g stroke-width="5" stroke="url(#gggyrate-grad)" fill="none"><polygon points="400,152.5 70,647.5 730,647.5" transform="rotate(40, 400, 400)" opacity="0.05"></polygon><polygon points="400,164.875 86.5,635.125 713.5,635.125" transform="rotate(38, 400, 400)" opacity="0.10"></polygon><polygon points="400,177.25 103,622.75 697,622.75" transform="rotate(36, 400, 400)" opacity="0.15"></polygon><polygon points="400,189.625 119.5,610.375 680.5,610.375" transform="rotate(34, 400, 400)" opacity="0.20"></polygon><polygon points="400,202 136,598 664,598" transform="rotate(32, 400, 400)" opacity="0.25"></polygon><polygon points="400,214.375 152.5,585.625 647.5,585.625" transform="rotate(30, 400, 400)" opacity="0.30"></polygon><polygon points="400,226.75 169,573.25 631,573.25" transform="rotate(28, 400, 400)" opacity="0.35"></polygon><polygon points="400,239.125 185.5,560.875 614.5,560.875" transform="rotate(26, 400, 400)" opacity="0.40"></polygon><polygon points="400,251.5 202,548.5 598,548.5" transform="rotate(24, 400, 400)" opacity="0.45"></polygon><polygon points="400,263.875 218.5,536.125 581.5,536.125" transform="rotate(22, 400, 400)" opacity="0.50"></polygon><polygon points="400,276.25 235,523.75 565,523.75" transform="rotate(20, 400, 400)" opacity="0.55"></polygon><polygon points="400,288.625 251.5,511.375 548.5,511.375" transform="rotate(18, 400, 400)" opacity="0.60"></polygon><polygon points="400,301 268,499 532,499" transform="rotate(16, 400, 400)" opacity="0.65"></polygon><polygon points="400,313.375 284.5,486.625 515.5,486.625" transform="rotate(14, 400, 400)" opacity="0.70"></polygon><polygon points="400,325.75 301,474.25 499,474.25" transform="rotate(12, 400, 400)" opacity="0.75"></polygon><polygon points="400,338.125 317.5,461.875 482.5,461.875" transform="rotate(10, 400, 400)" opacity="0.80"></polygon><polygon points="400,350.5 334,449.5 466,449.5" transform="rotate(8, 400, 400)" opacity="0.85"></polygon><polygon points="400,362.875 350.5,437.125 449.5,437.125" transform="rotate(6, 400, 400)" opacity="0.90"></polygon><polygon points="400,375.25 367,424.75 433,424.75" transform="rotate(4, 400, 400)" opacity="0.95"></polygon><polygon points="400,387.625 383.5,412.375 416.5,412.375" transform="rotate(2, 400, 400)" opacity="1.00"></polygon></g></svg>