<?xml version="1.0" encoding="utf-8"?>
<!-- Generator: Adobe Illustrator 27.5.0, SVG Export Plug-In . SVG Version: 6.00 Build 0)  -->
<svg version="1.1" id="Ñëîé_1" xmlns="http://www.w3.org/2000/svg" xmlns:xlink="http://www.w3.org/1999/xlink" x="0px" y="0px"
	 viewBox="0 0 1000 1000" style="enable-background:new 0 0 1000 1000;" xml:space="preserve">
<g>
	<radialGradient id="SVGID_1_" cx="499.2502" cy="500.4729" r="799.0146" gradientUnits="userSpaceOnUse">
		<stop  offset="0" style="stop-color:#FFFFFF"/>
		<stop  offset="0.2909" style="stop-color:#FCFCFC"/>
		<stop  offset="0.5077" style="stop-color:#F2F2F2"/>
		<stop  offset="0.7004" style="stop-color:#E2E2E2"/>
		<stop  offset="0.8781" style="stop-color:#CCCCCC"/>
		<stop  offset="1" style="stop-color:#B8B8B8"/>
	</radialGradient>
	<rect x="-0.75" y="0.473" style="fill:url(#SVGID_1_);" width="1000" height="1000"/>
	<g>
		<g>
			<polygon style="fill:#E25046;" points="332.585,545.926 415.919,591.383 332.585,636.836 			"/>
			<polygon style="fill:#F48E14;" points="332.585,636.836 249.253,591.383 332.585,545.926 			"/>
		</g>
		<polygon style="fill:#C9189E;" points="582.584,318.655 499.253,273.2 582.584,227.745 		"/>
		<polygon style="fill:#C31D9B;" points="415.919,136.836 499.253,182.292 415.919,227.745 		"/>
		<polygon style="fill:#F21D58;" points="499.253,182.292 415.919,227.745 499.253,273.2 582.584,227.745 		"/>
		<polygon style="fill:#6E4EB9;" points="332.585,91.381 332.585,182.292 415.919,227.745 415.919,136.836 		"/>
		<polygon style="fill:#7447B7;" points="249.253,136.836 249.253,227.745 332.585,182.292 332.585,91.381 		"/>
		<polygon style="fill:#E15348;" points="249.253,227.745 165.919,182.292 249.253,136.836 		"/>
		<polygon style="fill:#F68B14;" points="165.919,182.292 82.585,227.745 165.919,273.2 249.253,227.745 		"/>
		<polygon style="fill:#F58314;" points="82.585,227.745 165.919,273.2 82.585,318.655 		"/>
		<polygon style="fill:#D82373;" points="499.253,545.926 415.919,500.473 499.253,455.018 		"/>
		<polygon style="fill:#B74B80;" points="499.253,364.11 415.919,318.655 332.585,273.2 332.585,364.11 415.919,409.563 
			499.253,455.018 499.253,545.926 582.584,591.383 582.584,500.473 582.584,409.563 		"/>
		<polygon style="fill:#D8256F;" points="415.919,409.563 499.253,455.018 415.919,500.473 		"/>
		<polygon style="fill:#F88E16;" points="332.585,364.11 415.919,409.563 332.585,455.018 		"/>
		<polygon style="fill:#EF652B;" points="415.919,500.473 332.585,455.018 415.919,409.563 		"/>
		<polygon style="fill:#DF3F56;" points="332.585,455.018 249.253,409.563 332.585,364.11 		"/>
		<polygon style="fill:#EC7428;" points="249.253,409.563 332.585,455.018 249.253,500.473 		"/>
		<polygon style="fill:#EB7629;" points="249.253,500.473 165.919,455.018 249.253,409.563 		"/>
		<polygon style="fill:#F68D15;" points="165.919,455.018 249.253,500.473 165.919,545.926 		"/>
		<polygon style="fill:#F68915;" points="249.253,318.655 165.919,364.11 82.585,409.563 82.585,500.473 82.585,591.383 
			165.919,545.926 165.919,455.018 249.253,409.563 332.585,364.11 332.585,273.2 		"/>
		<polygon style="fill:#E83A4A;" points="499.253,727.746 415.919,682.289 499.253,636.836 		"/>
		<polygon style="fill:#F47E1E;" points="415.919,682.289 499.253,727.746 415.919,773.199 		"/>
		<polygon style="fill:#F99E11;" points="415.919,773.199 332.585,727.746 415.919,682.289 		"/>
		<polygon style="fill:#F79016;" points="249.253,682.289 332.585,727.746 249.253,773.199 		"/>
		<polygon style="fill:#FB880A;" points="165.919,636.836 249.253,682.289 165.919,727.746 		"/>
		<polygon style="fill:#F5891B;" points="249.253,773.199 165.919,727.746 249.253,682.289 		"/>
		<polygon style="fill:#EF7F21;" points="332.585,727.746 415.919,773.199 332.585,818.654 		"/>
		<polygon style="fill:#E8474B;" points="499.253,636.836 499.253,727.746 415.919,773.199 332.585,818.654 332.585,909.563 
			415.919,864.109 499.253,818.654 582.584,773.199 582.584,682.289 582.584,591.383 		"/>
		<polygon style="fill:#F9910C;" points="332.585,818.654 249.253,773.199 332.585,727.746 		"/>
		<polygon style="fill:#F58614;" points="249.253,773.199 165.919,727.746 165.919,636.836 82.585,591.383 82.585,682.289 
			82.585,773.199 165.919,818.654 249.253,864.109 332.585,909.563 332.585,818.654 		"/>
		<polygon style="fill:#6A53B6;" points="499.253,909.563 499.253,1000.473 582.584,955.019 582.584,864.109 		"/>
		<polygon style="fill:#8E34BA;" points="499.253,1000.473 415.919,955.019 499.253,909.563 		"/>
		<polygon style="fill:#6B7479;" points="582.584,1000.473 582.584,955.019 499.253,1000.473 499.255,1000.473 		"/>
		<polygon style="fill:#C71C98;" points="415.919,955.019 415.919,1000.473 499.25,1000.473 499.253,1000.473 		"/>
		<polygon style="fill:#F55A27;" points="415.919,955.019 332.585,1000.473 332.587,1000.473 415.919,1000.473 		"/>
		<polygon style="fill:#FA8A0E;" points="165.919,909.563 249.253,955.019 165.919,1000.473 		"/>
		<polygon style="fill:#ED7C20;" points="82.585,864.109 82.585,955.019 165.919,1000.473 165.919,909.563 		"/>
		<polygon style="fill:#F88B0B;" points="249.253,955.019 249.253,1000.473 332.585,1000.473 332.585,1000.473 		"/>
		<polygon style="fill:#FB890C;" points="249.253,955.019 165.919,1000.473 165.921,1000.473 249.253,1000.473 		"/>
		<polygon style="fill:#F38514;" points="82.585,955.019 82.585,1000.473 165.916,1000.473 165.919,1000.473 		"/>
		<polygon style="fill:#F69416;" points="582.584,136.836 499.253,91.381 582.584,45.928 		"/>
		<polygon style="fill:#DE5B47;" points="499.253,0.473 415.919,45.928 499.253,91.381 582.584,45.928 		"/>
		<polygon style="fill:#F69110;" points="582.584,0.473 499.253,0.473 582.584,45.928 		"/>
		<polygon style="fill:#CF3070;" points="415.919,45.928 499.253,0.473 415.919,0.473 		"/>
		<polygon style="fill:#F17826;" points="332.585,0.473 415.919,45.928 415.919,0.473 		"/>
		<polygon style="fill:#F48716;" points="165.919,0.473 82.585,45.928 165.919,91.381 249.253,45.928 		"/>
		<polygon style="fill:#FA8B0D;" points="82.585,45.928 165.919,91.381 82.585,136.836 		"/>
		<polygon style="fill:#D74259;" points="249.253,45.928 332.585,0.473 249.253,0.473 		"/>
		<polygon style="fill:#F17E1F;" points="165.919,0.473 249.253,45.928 249.253,0.473 		"/>
		<polygon style="fill:#F99110;" points="82.585,45.928 165.919,0.473 82.585,0.473 		"/>
	</g>
</g>
</svg>
