<?xml version="1.0" encoding="utf-8"?>
<!-- Generator: Adobe Illustrator 27.5.0, SVG Export Plug-In . SVG Version: 6.00 Build 0)  -->
<svg version="1.1" xmlns="http://www.w3.org/2000/svg" xmlns:xlink="http://www.w3.org/1999/xlink" x="0px" y="0px"
	 viewBox="0 0 1200 800" style="enable-background:new 0 0 1200 800;" xml:space="preserve">
<g id="background">
	<rect x="0" style="fill:#F7F7F7;" width="1200" height="800"/>
</g>
<g id="object">
	<g>
		<defs>
			<rect id="SVGID_1_" x="0" width="1200" height="800"/>
		</defs>
		<clipPath id="SVGID_00000018927370250209518350000011113203099903616915_">
			<use xlink:href="#SVGID_1_"  style="overflow:visible;"/>
		</clipPath>
		<g style="clip-path:url(#SVGID_00000018927370250209518350000011113203099903616915_);">
			<g>
				
					<linearGradient id="SVGID_00000098215577219054575840000011266029701879283591_" gradientUnits="userSpaceOnUse" x1="8.3254" y1="682.6018" x2="287.0847" y2="682.6018">
					<stop  offset="0.3892" style="stop-color:#1A5D7D"/>
					<stop  offset="0.5022" style="stop-color:#1A5B7A"/>
					<stop  offset="0.5896" style="stop-color:#1B5470"/>
					<stop  offset="0.6685" style="stop-color:#1D4960"/>
					<stop  offset="0.7424" style="stop-color:#1F3A48"/>
					<stop  offset="0.8121" style="stop-color:#22262B"/>
					<stop  offset="0.8334" style="stop-color:#231F20"/>
				</linearGradient>
				<polygon style="fill:url(#SVGID_00000098215577219054575840000011266029701879283591_);" points="166.21,769.477 
					166.21,595.727 166.193,595.717 8.325,682.591 8.325,682.612 166.193,769.486 				"/>
				<polygon style="fill:none;" points="398.518,-1.675 398.518,-222.179 398.497,-222.19 398.496,-222.19 398.517,-222.179 
					398.517,-1.675 398.496,-1.663 198.149,108.588 198.149,108.588 398.497,-1.663 				"/>
				<polygon style="fill:none;" points="598.886,-111.937 598.886,-111.937 799.237,-222.19 799.254,-222.181 799.254,-1.673 
					799.237,-1.663 799.254,-1.654 799.254,218.854 799.239,218.864 799.255,218.854 799.255,-1.654 799.237,-1.663 799.255,-1.672 
					799.255,-222.181 799.237,-222.19 				"/>
				<polygon style="fill:none;" points="198.149,-111.939 398.496,-222.19 398.496,-222.19 				"/>
				<polygon style="fill:none;" points="53.725,470.192 198.127,549.656 198.149,549.643 198.127,549.655 				"/>
				<polygon style="fill:none;" points="-202.614,329.093 -202.589,329.107 -202.589,329.079 				"/>
				<polygon style="fill:none;" points="-2.219,439.379 34.598,419.118 -2.219,439.379 				"/>
				<polygon style="fill:#1A5D7D;" points="198.127,108.601 -2.219,218.851 -2.219,218.877 198.127,329.128 198.127,329.128 
					198.128,329.128 198.149,329.116 198.149,108.613 				"/>
				
					<linearGradient id="SVGID_00000022539782724167720950000002356110656626842501_" gradientUnits="userSpaceOnUse" x1="5343.5747" y1="-6534.6807" x2="5606.4478" y2="-6346.312" gradientTransform="matrix(0 1 -1 0 -6356.8525 -5181.0249)">
					<stop  offset="0.3731" style="stop-color:#0E1E23"/>
					<stop  offset="0.3974" style="stop-color:#39464A"/>
					<stop  offset="0.4249" style="stop-color:#626D70"/>
					<stop  offset="0.4559" style="stop-color:#889092"/>
					<stop  offset="0.4896" style="stop-color:#A8AEB0"/>
					<stop  offset="0.5268" style="stop-color:#C4C8C9"/>
					<stop  offset="0.5688" style="stop-color:#DADCDD"/>
					<stop  offset="0.6179" style="stop-color:#EBECEC"/>
					<stop  offset="0.6786" style="stop-color:#F6F7F7"/>
					<stop  offset="0.7637" style="stop-color:#FDFDFD"/>
					<stop  offset="1" style="stop-color:#FFFFFF"/>
				</linearGradient>
				<polygon style="opacity:0.5;fill:url(#SVGID_00000022539782724167720950000002356110656626842501_);" points="-2.219,439.392 
					34.598,419.132 198.127,329.142 -2.219,218.891 				"/>
				
					<linearGradient id="SVGID_00000059291586086324706640000013423240241242663331_" gradientUnits="userSpaceOnUse" x1="455.6255" y1="130.995" x2="561.313" y2="-59.2425">
					<stop  offset="0.3731" style="stop-color:#0E1E23"/>
					<stop  offset="0.3974" style="stop-color:#39464A"/>
					<stop  offset="0.4249" style="stop-color:#626D70"/>
					<stop  offset="0.4559" style="stop-color:#889092"/>
					<stop  offset="0.4896" style="stop-color:#A8AEB0"/>
					<stop  offset="0.5268" style="stop-color:#C4C8C9"/>
					<stop  offset="0.5688" style="stop-color:#DADCDD"/>
					<stop  offset="0.6179" style="stop-color:#EBECEC"/>
					<stop  offset="0.6786" style="stop-color:#F6F7F7"/>
					<stop  offset="0.7637" style="stop-color:#FDFDFD"/>
					<stop  offset="1" style="stop-color:#FFFFFF"/>
				</linearGradient>
				<polygon style="opacity:0.5;fill:url(#SVGID_00000059291586086324706640000013423240241242663331_);" points="598.886,-111.917 
					598.868,-111.926 398.518,-1.675 398.518,-1.651 598.868,108.601 598.886,108.59 598.886,108.59 598.886,-111.917 				"/>
				<polygon style="fill:#40A1BC;" points="398.518,218.853 598.868,108.601 398.518,-1.651 				"/>
				<polygon style="fill:#649A98;" points="398.497,-1.663 198.149,108.588 198.149,108.613 398.497,218.864 398.518,218.853 
					398.518,-1.651 				"/>
				<polygon style="fill:#649A98;" points="799.348,-2.984 599,107.267 599,107.292 799.348,217.543 799.369,217.532 
					799.369,-2.973 				"/>
				<polygon style="fill:#9FC6C5;" points="999.608,108.601 799.255,-1.654 799.255,218.854 				"/>
				
					<linearGradient id="SVGID_00000111179403210767032610000014562718876631808441_" gradientUnits="userSpaceOnUse" x1="5101.7036" y1="-7389.0732" x2="5257.0205" y2="-7233.7563" gradientTransform="matrix(0 1 -1 0 -6356.8525 -5181.0249)">
					<stop  offset="0.4048" style="stop-color:#FFFFFF"/>
					<stop  offset="0.5619" style="stop-color:#FDFDFD"/>
					<stop  offset="0.6463" style="stop-color:#F5F5F5"/>
					<stop  offset="0.7135" style="stop-color:#E7E7E7"/>
					<stop  offset="0.7716" style="stop-color:#D4D4D4"/>
					<stop  offset="0.8239" style="stop-color:#BBBBBB"/>
					<stop  offset="0.8719" style="stop-color:#9C9C9C"/>
					<stop  offset="0.9168" style="stop-color:#787877"/>
					<stop  offset="0.9584" style="stop-color:#4E4E4D"/>
					<stop  offset="0.9973" style="stop-color:#20201F"/>
					<stop  offset="1" style="stop-color:#1C1C1B"/>
				</linearGradient>
				<polygon style="opacity:0.3;fill:url(#SVGID_00000111179403210767032610000014562718876631808441_);" points="799.255,-1.672 
					799.255,-1.654 999.608,108.601 999.624,108.592 999.624,-111.918 999.608,-111.926 				"/>
				<polygon style="fill:#2A3538;" points="1199.978,-1.663 999.624,-111.918 999.624,108.592 				"/>
				<polygon style="fill:#649A98;" points="198.149,108.588 198.149,-111.914 198.149,-111.914 198.127,-111.926 198.127,-111.926 
					198.126,-111.926 -2.219,-1.676 -2.219,-1.65 198.127,108.601 198.149,108.588 				"/>
				<polygon style="fill:#9FC6C5;" points="398.517,-1.675 398.517,-222.179 398.496,-222.19 198.149,-111.939 198.149,-111.914 
					198.149,-111.914 198.149,108.588 398.496,-1.663 				"/>
				<polygon style="fill:#2A3538;" points="398.518,-1.675 598.868,-111.926 398.518,-222.179 				"/>
				<polygon style="fill:#1A5D7D;" points="0,-226.14 0,-5.639 200.346,-115.89 				"/>
				
					<linearGradient id="SVGID_00000029047591822192405190000014586130533266966163_" gradientUnits="userSpaceOnUse" x1="4991.4399" y1="9678.4326" x2="5146.7568" y2="9833.75" gradientTransform="matrix(0 1 1 0 -9803.377 -5181.0249)">
					<stop  offset="0" style="stop-color:#0E1E23"/>
					<stop  offset="0.1413" style="stop-color:#0E1E23"/>
					<stop  offset="1" style="stop-color:#0E1E23"/>
				</linearGradient>
				<polygon style="fill:url(#SVGID_00000029047591822192405190000014586130533266966163_);" points="-2.22,-222.177 
					-2.22,-222.177 -2.243,-222.19 -2.243,-222.19 -2.243,-222.19 -202.589,-111.941 -202.589,-111.912 -2.243,-1.663 
					-2.219,-1.676 -2.219,-222.177 				"/>
				<rect x="198.127" y="-111.927" style="fill:#2A3538;" width="0" height="0"/>
				
					<linearGradient id="SVGID_00000126316381494682491390000009364011609006424251_" gradientUnits="userSpaceOnUse" x1="5069.0986" y1="10001.5264" x2="5069.0986" y2="9996.7266" gradientTransform="matrix(0 1 1 0 -9803.377 -5181.0249)">
					<stop  offset="0" style="stop-color:#0E1E23"/>
					<stop  offset="0.1413" style="stop-color:#0E1E23"/>
					<stop  offset="1" style="stop-color:#0E1E23"/>
				</linearGradient>
				
					<rect x="198.127" y="-111.927" style="fill:url(#SVGID_00000126316381494682491390000009364011609006424251_);" width="0" height="0"/>
				<rect x="97.954" y="-281.391" style="fill:#1A5D7D;" width="0" height="228.678"/>
				
					<linearGradient id="SVGID_00000033359210767979109020000000083745216908813705_" gradientUnits="userSpaceOnUse" x1="5013.9731" y1="10001.5039" x2="5013.9731" y2="9600.8115" gradientTransform="matrix(0 1 1 0 -9803.377 -5181.0249)">
					<stop  offset="0" style="stop-color:#0E1E23"/>
					<stop  offset="0.1413" style="stop-color:#0E1E23"/>
					<stop  offset="1" style="stop-color:#0E1E23"/>
				</linearGradient>
				
					<rect x="97.954" y="-281.391" style="fill:url(#SVGID_00000033359210767979109020000000083745216908813705_);" width="0" height="228.678"/>
				
					<linearGradient id="SVGID_00000129911524626742729370000011727647608238649018_" gradientUnits="userSpaceOnUse" x1="4958.835" y1="9801.1338" x2="4958.835" y2="9801.1338" gradientTransform="matrix(0 1 1 0 -9803.377 -5181.0249)">
					<stop  offset="0" style="stop-color:#0E1E23"/>
					<stop  offset="0.1413" style="stop-color:#0E1E23"/>
					<stop  offset="1" style="stop-color:#0E1E23"/>
				</linearGradient>
				
					<rect x="-2.243" y="-222.19" style="fill:url(#SVGID_00000129911524626742729370000011727647608238649018_);" width="0" height="0"/>
				
					<linearGradient id="SVGID_00000119818635186770234460000012473098660870091397_" gradientUnits="userSpaceOnUse" x1="4958.835" y1="9801.1338" x2="4958.835" y2="9801.1338" gradientTransform="matrix(0 1 1 0 -9803.377 -5181.0249)">
					<stop  offset="0" style="stop-color:#0E1E23"/>
					<stop  offset="0.1413" style="stop-color:#0E1E23"/>
					<stop  offset="1" style="stop-color:#0E1E23"/>
				</linearGradient>
				
					<rect x="-2.243" y="-222.19" style="fill:url(#SVGID_00000119818635186770234460000012473098660870091397_);" width="0" height="0"/>
				
					<linearGradient id="SVGID_00000182486720908143786510000000975278023293257629_" gradientUnits="userSpaceOnUse" x1="4957.0474" y1="9799.3564" x2="4960.6475" y2="9802.957" gradientTransform="matrix(0 1 1 0 -9803.377 -5181.0249)">
					<stop  offset="0" style="stop-color:#0E1E23"/>
					<stop  offset="0.1413" style="stop-color:#0E1E23"/>
					<stop  offset="1" style="stop-color:#0E1E23"/>
				</linearGradient>
				
					<rect x="-2.22" y="-222.178" style="fill:url(#SVGID_00000182486720908143786510000000975278023293257629_);" width="0" height="0.001"/>
				
					<linearGradient id="SVGID_00000174579512111911956630000005120929845269133478_" gradientUnits="userSpaceOnUse" x1="4958.8477" y1="9804.7578" x2="4958.8477" y2="9797.5576" gradientTransform="matrix(0 1 1 0 -9803.377 -5181.0249)">
					<stop  offset="0" style="stop-color:#0E1E23"/>
					<stop  offset="0.1413" style="stop-color:#0E1E23"/>
					<stop  offset="1" style="stop-color:#0E1E23"/>
				</linearGradient>
				
					<rect x="-2.22" y="-222.178" style="fill:url(#SVGID_00000174579512111911956630000005120929845269133478_);" width="0" height="0.001"/>
				<polygon style="fill:#2A3538;" points="799.254,-222.181 799.237,-222.19 598.886,-111.937 598.886,-111.937 598.868,-111.926 
					598.886,-111.917 598.886,-111.917 598.886,108.59 799.237,-1.663 799.254,-1.673 				"/>
				<polygon style="fill:#1A5D7D;" points="999.608,-111.926 799.255,-222.181 799.255,-1.672 				"/>
				<polygon style="fill:#1A5D7D;" points="799.255,218.854 799.255,218.874 999.608,329.128 999.624,329.119 999.624,108.609 
					999.608,108.601 				"/>
				<polygon style="fill:#1A5D7D;" points="53.725,470.192 -2.219,439.405 -2.219,659.906 198.127,549.656 				"/>
				
					<linearGradient id="SVGID_00000083056258439319701110000009534607610505076913_" gradientUnits="userSpaceOnUse" x1="-84.7443" y1="464.8536" x2="-13.4051" y2="347.2758">
					<stop  offset="0.3731" style="stop-color:#0E1E23"/>
					<stop  offset="0.3974" style="stop-color:#39464A"/>
					<stop  offset="0.4249" style="stop-color:#626D70"/>
					<stop  offset="0.4559" style="stop-color:#889092"/>
					<stop  offset="0.4896" style="stop-color:#A8AEB0"/>
					<stop  offset="0.5268" style="stop-color:#C4C8C9"/>
					<stop  offset="0.5688" style="stop-color:#DADCDD"/>
					<stop  offset="0.6179" style="stop-color:#EBECEC"/>
					<stop  offset="0.6786" style="stop-color:#F6F7F7"/>
					<stop  offset="0.7637" style="stop-color:#FDFDFD"/>
					<stop  offset="1" style="stop-color:#FFFFFF"/>
				</linearGradient>
				<polygon style="opacity:0.5;fill:url(#SVGID_00000083056258439319701110000009534607610505076913_);" points="198.127,549.655 
					198.149,549.643 398.496,439.392 198.149,329.141 198.138,329.134 198.149,329.14 198.149,329.116 198.128,329.128 
					198.127,329.128 198.127,329.128 34.598,419.118 -2.219,439.379 -2.219,439.379 -2.219,218.877 -2.219,218.851 198.127,108.601 
					-2.219,-1.65 -2.219,-1.676 -2.243,-1.663 -202.589,-111.912 -202.589,108.579 -202.589,108.587 -202.614,108.601 
					-202.589,108.615 -2.243,218.864 -202.582,329.11 -2.243,439.357 -2.276,439.374 -2.243,439.392 -2.22,439.404 -2.22,439.405 
					-2.219,439.405 53.725,470.192 				"/>
				<polygon style="fill:#FFFFFF;" points="198.149,329.116 198.149,329.14 398.497,439.392 398.518,439.38 398.518,218.876 
					398.497,218.864 				"/>
				<polygon style="fill:#0E1E23;" points="-202.589,329.142 -202.589,329.115 -202.614,329.128 				"/>
				<polygon style="fill:#0E1E23;" points="398.518,-1.651 398.518,-1.675 398.497,-1.663 				"/>
				<polygon style="fill:#0E1E23;" points="198.149,108.588 198.127,108.601 198.149,108.613 				"/>
				<polygon style="fill:#0E1E23;" points="-202.614,-111.926 -202.589,-111.912 -202.589,-111.941 				"/>
				<polygon style="fill:#0E1E23;" points="-2.219,-222.204 -2.243,-222.19 -2.243,-222.19 -2.22,-222.177 -2.219,-222.177 				"/>
				<polygon style="fill:#0E1E23;" points="999.624,-111.918 999.624,-111.935 999.608,-111.926 				"/>
				<polygon style="fill:#2A3538;" points="610.84,450.913 610.84,450.915 680.456,412.605 610.84,374.295 				"/>
				<polygon style="fill:#649A98;" points="183.151,672.335 183.151,672.337 252.767,634.027 183.151,595.717 				"/>
				<polygon style="fill:#40A1BC;" points="1022.33,331.522 1022.33,331.525 1131.653,271.365 1022.33,211.204 				"/>
				<polygon style="fill:#0E1E23;" points="198.127,-111.926 198.127,-111.926 198.149,-111.914 198.149,-111.939 				"/>
				<polygon style="fill:#0E1E23;" points="999.624,329.137 999.624,329.119 999.608,329.128 				"/>
				<polygon style="fill:#0E1E23;" points="799.255,-1.654 799.255,-1.672 799.237,-1.663 				"/>
				<polygon style="fill:#0E1E23;" points="-2.243,659.919 -2.219,659.932 -2.219,659.906 				"/>
				<polygon style="fill:#0E1E23;" points="1199.993,-1.671 1199.978,-1.663 1199.993,-1.655 				"/>
				<polygon style="fill:#0E1E23;" points="198.149,549.667 198.149,549.643 198.127,549.656 				"/>
				<polygon style="fill:#0E1E23;" points="999.624,108.609 999.624,108.592 999.608,108.601 				"/>
				<polygon style="fill:#0E1E23;" points="398.518,439.403 398.518,439.38 398.497,439.392 				"/>
				<polygon style="fill:#1A5D7D;" points="598.886,329.117 598.886,108.611 598.886,108.611 598.886,108.611 598.886,108.59 
					598.886,108.59 598.868,108.601 398.518,218.853 398.497,218.864 398.518,218.876 598.867,329.128 598.886,329.138 
					598.886,329.117 598.886,329.117 				"/>
				<polygon style="fill:#0E1E23;" points="799.239,218.864 799.237,218.864 799.237,218.864 799.255,218.874 799.255,218.854 				
					"/>
				<g>
					<polygon style="fill:#FFFFFF;" points="799.246,218.815 598.915,108.574 598.896,108.563 598.896,108.585 598.896,329.067 
											"/>
					<path style="fill:none;" d="M598.886,329.118L598.886,329.118L598.886,329.118z"/>
				</g>
				
					<linearGradient id="SVGID_00000010998847666212872310000006959893642610649492_" gradientUnits="userSpaceOnUse" x1="5289.5879" y1="9801.1445" x2="5289.5879" y2="9600.7764" gradientTransform="matrix(0 1 1 0 -9803.377 -5181.0249)">
					<stop  offset="0" style="stop-color:#0E1E23"/>
					<stop  offset="0.0614" style="stop-color:#162429"/>
					<stop  offset="0.21" style="stop-color:#212E32"/>
					<stop  offset="0.4192" style="stop-color:#283337"/>
					<stop  offset="1" style="stop-color:#2A3538"/>
				</linearGradient>
				<polygon style="fill:url(#SVGID_00000010998847666212872310000006959893642610649492_);" points="-202.6,108.557 
					-202.6,108.586 -2.289,218.818 -2.257,218.801 -2.232,218.814 -2.232,-1.678 -2.257,-1.692 				"/>
				
					<linearGradient id="SVGID_00000135690536358525963760000000056879542082131330_" gradientUnits="userSpaceOnUse" x1="5510.167" y1="9801.1445" x2="5510.167" y2="9600.7764" gradientTransform="matrix(0 1 1 0 -9803.377 -5181.0249)">
					<stop  offset="0" style="stop-color:#0E1E23"/>
					<stop  offset="0.0614" style="stop-color:#162429"/>
					<stop  offset="0.21" style="stop-color:#212E32"/>
					<stop  offset="0.4192" style="stop-color:#283337"/>
					<stop  offset="1" style="stop-color:#2A3538"/>
				</linearGradient>
				<polygon style="fill:url(#SVGID_00000135690536358525963760000000056879542082131330_);" points="-202.6,329.136 
					-202.6,329.165 -2.289,439.397 -2.257,439.379 -2.232,439.393 -2.232,218.901 -2.257,218.887 				"/>
				
					<linearGradient id="SVGID_00000170995006068856042160000000811699886835286204_" gradientUnits="userSpaceOnUse" x1="5399.9121" y1="10863.6494" x2="5399.9121" y2="10663.2813" gradientTransform="matrix(0 1 1 0 -9803.377 -5181.0249)">
					<stop  offset="0.1666" style="stop-color:#231F20"/>
					<stop  offset="0.1879" style="stop-color:#22262B"/>
					<stop  offset="0.2576" style="stop-color:#1F3A48"/>
					<stop  offset="0.3315" style="stop-color:#1D4960"/>
					<stop  offset="0.4104" style="stop-color:#1B5470"/>
					<stop  offset="0.4978" style="stop-color:#1A5B7A"/>
					<stop  offset="0.6108" style="stop-color:#1A5D7D"/>
				</linearGradient>
				<polygon style="fill:url(#SVGID_00000170995006068856042160000000811699886835286204_);" points="799.247,218.882 
					799.247,218.911 999.559,329.142 999.591,329.125 999.616,329.138 999.616,108.646 999.591,108.632 				"/>
				<polygon style="fill:#40A1BC;" points="198.16,549.609 234.977,529.349 398.506,439.358 198.16,329.108 				"/>
				<polygon style="fill:#2A3538;" points="198.481,327.664 235.298,307.404 398.827,217.414 198.481,107.163 				"/>
				<polygon style="fill:#649A98;" points="0,438.483 36.817,418.222 200.346,328.232 0,217.981 				"/>
			</g>
			<polygon style="fill:#649A98;" points="600.923,363.061 480.659,296.88 480.647,296.874 480.647,296.887 480.647,429.248 			"/>
		</g>
	</g>
</g>
</svg>
