<?xml version="1.0" encoding="utf-8"?>
<!-- Generator: Adobe Illustrator 27.5.0, SVG Export Plug-In . SVG Version: 6.00 Build 0)  -->
<svg version="1.1" xmlns="http://www.w3.org/2000/svg" xmlns:xlink="http://www.w3.org/1999/xlink" x="0px" y="0px"
	 viewBox="0 0 750 500" style="enable-background:new 0 0 750 500;" xml:space="preserve">
<g id="BACKGROUND">
</g>
<g id="OBJECTS">
	<g>
		<g>
			<path style="fill:#FF5E78;" d="M406.25,375L406.25,375c-17.259,0-31.25,13.991-31.25,31.25v0c0,17.259,13.991,31.25,31.25,31.25
				h0c17.259,0,31.25-13.991,31.25-31.25v0C437.5,388.991,423.509,375,406.25,375z"/>
		</g>
		<g>
			<path style="fill:#150E56;" d="M406.25,392.122L406.25,392.122c-7.803,0-14.128,6.325-14.128,14.128v0
				c0,7.802,6.325,14.128,14.128,14.128h0c7.803,0,14.128-6.325,14.128-14.128v0C420.378,398.447,414.052,392.122,406.25,392.122z"
				/>
		</g>
	</g>
	<g>
		<rect x="187.5" y="437.5" style="fill:#28B5B5;" width="62.5" height="62.5"/>
	</g>
	<g>
		<g>
			<rect x="125" y="312.5" style="fill:#FFFFFF;" width="62.5" height="62.5"/>
		</g>
		<g>
			<g>
				<rect x="125" y="346.562" style="fill:#150E56;" width="62.5" height="5.625"/>
			</g>
			<g>
				<rect x="125" y="357.812" style="fill:#150E56;" width="62.5" height="5.625"/>
			</g>
			<g>
				<rect x="125" y="369.062" style="fill:#150E56;" width="62.5" height="5.938"/>
			</g>
			<g>
				<rect x="125" y="324.062" style="fill:#150E56;" width="62.5" height="5.625"/>
			</g>
			<g>
				<rect x="125" y="312.5" style="fill:#150E56;" width="62.5" height="5.937"/>
			</g>
			<g>
				<rect x="125" y="335.312" style="fill:#150E56;" width="62.5" height="5.625"/>
			</g>
		</g>
	</g>
	<g>
		<g>
			<rect x="500" y="375" style="fill:#FFFFFF;" width="62.5" height="62.5"/>
		</g>
		<g>
			<g>
				<rect x="522.812" y="375" style="fill:#28B5B5;" width="5.625" height="62.5"/>
			</g>
			<g>
				<rect x="511.562" y="375" style="fill:#28B5B5;" width="5.625" height="62.5"/>
			</g>
			<g>
				<rect x="500" y="375" style="fill:#28B5B5;" width="5.938" height="62.5"/>
			</g>
			<g>
				<rect x="545.312" y="375" style="fill:#28B5B5;" width="5.625" height="62.5"/>
			</g>
			<g>
				<rect x="556.562" y="375" style="fill:#28B5B5;" width="5.937" height="62.5"/>
			</g>
			<g>
				<rect x="534.062" y="375" style="fill:#28B5B5;" width="5.625" height="62.5"/>
			</g>
		</g>
	</g>
	<g>
		<rect x="62.5" y="375" style="fill:#150E56;" width="62.5" height="62.5"/>
	</g>
	<g>
		<rect x="62.5" y="312.5" style="fill:#F3F3F3;" width="62.5" height="62.5"/>
	</g>
	<g>
		<rect x="125" y="375" style="fill:#F3F3F3;" width="62.5" height="62.5"/>
	</g>
	<g>
		<path style="fill:#FF5E78;" d="M0.548,312.5H0V250h62.5v0.548C62.5,284.763,34.763,312.5,0.548,312.5z"/>
	</g>
	<g>
		<rect x="0" y="187.5" style="fill:#150E56;" width="62.5" height="62.5"/>
	</g>
	<g>
		<rect x="62.5" y="437.5" style="fill:#FFFFFF;" width="62.5" height="62.5"/>
	</g>
	<g>
		<g>
			<rect x="62.5" y="250" style="fill:#FF5E78;" width="62.5" height="62.5"/>
		</g>
		<g>
			<path style="fill:#150E56;" d="M125,312.5h-0.548c-34.215,0-61.952-27.737-61.952-61.952V250H125V312.5z"/>
		</g>
	</g>
	<g>
		<g>
			<rect x="62.5" y="125.002" style="fill:#28B5B5;" width="62.5" height="62.5"/>
		</g>
		<g>
			<path style="fill:#150E56;" d="M125,187.5H62.5v-0.548C62.5,152.737,90.237,125,124.452,125H125V187.5z"/>
		</g>
	</g>
	<g>
		<g>
			<rect x="125" y="437.501" style="fill:#FF5E78;" width="62.5" height="62.5"/>
		</g>
		<g>
			<path style="fill:#150E56;" d="M187.5,500h-0.548C152.737,500,125,472.263,125,438.047V437.5h62.5V500z"/>
		</g>
	</g>
	<g>
		<path style="fill:#FF5E78;" d="M125.548,312.5H125V250h62.5v0.548C187.5,284.763,159.763,312.5,125.548,312.5z"/>
	</g>
	<g>
		<rect x="687.5" y="312.5" style="fill:#150E56;" width="62.5" height="62.5"/>
	</g>
	<g>
		<rect x="687.5" y="250" style="fill:#FF5E78;" width="62.5" height="62.5"/>
	</g>
	<g>
		<rect x="625" y="312.5" style="fill:#FF5E78;" width="62.5" height="62.5"/>
	</g>
	<g>
		<path style="fill:#FF5E78;" d="M187.5,375H250v-31.524c0-17.108-13.868-30.976-30.976-30.976h-0.548
			c-17.108,0-30.976,13.868-30.976,30.976V375z"/>
	</g>
	<g>
		<path style="fill:#150E56;" d="M187.5,250h-31.524C138.868,250,125,236.131,125,219.024v-0.548
			c0-17.108,13.868-30.976,30.976-30.976H187.5V250z"/>
	</g>
	<g>
		<path style="fill:#150E56;" d="M187.5,250h-31.524C138.868,250,125,236.131,125,219.024v-0.548
			c0-17.108,13.868-30.976,30.976-30.976H187.5V250z"/>
	</g>
	<g>
		<path style="fill:#FF5E78;" d="M187.5,187.5H125V125h0.548c34.215,0,61.952,27.737,61.952,61.952V187.5z"/>
	</g>
	<g>
		<path style="fill:#150E56;" d="M250,437.5h-62.5l0,0c0-34.518,27.982-62.5,62.5-62.5h0V437.5z"/>
	</g>
	<g>
		<path style="fill:#28B5B5;" d="M219.024,124.999H187.5v-62.5h31.524c17.108,0,30.976,13.869,30.976,30.976v0.548
			C250,111.13,236.131,124.999,219.024,124.999z"/>
	</g>
	<g>
		<path style="fill:#FF5E78;" d="M250.548,62.499H250v-62.5h62.5v0.548C312.5,34.762,284.763,62.499,250.548,62.499z"/>
	</g>
	<g>
		<rect x="312.5" y="375" style="fill:#150E56;" width="62.5" height="62.5"/>
	</g>
	<g>
		<g>
			<path style="fill:#150E56;" d="M93.75,437.5L93.75,437.5c-17.259,0-31.25,13.991-31.25,31.25l0,0
				c0,17.259,13.991,31.25,31.25,31.25l0,0c17.259,0,31.25-13.991,31.25-31.25l0,0C125,451.491,111.009,437.5,93.75,437.5z"/>
		</g>
		<g>
			<path style="fill:#FFFFFF;" d="M93.75,454.622L93.75,454.622c-7.803,0-14.128,6.325-14.128,14.128l0,0
				c0,7.803,6.325,14.128,14.128,14.128l0,0c7.803,0,14.128-6.325,14.128-14.128l0,0C107.878,460.947,101.553,454.622,93.75,454.622
				z"/>
		</g>
	</g>
	<g>
		<path style="fill:#150E56;" d="M344.024,62.499h-0.548c-17.108,0-30.976-13.868-30.976-30.976v-0.548
			c0-17.108,13.868-30.976,30.976-30.976h0.548C361.131-0.001,375,13.867,375,30.975v0.548C375,48.63,361.131,62.499,344.024,62.499
			z"/>
	</g>
	<g>
		<path style="fill:#FF5E78;" d="M437.5,62.499h-0.548C402.737,62.499,375,34.762,375,0.546v-0.548h62.5V62.499z"/>
	</g>
	<g>
		<path style="fill:#FF5E78;" d="M500,500h-0.548c-34.215,0-61.952-27.737-61.952-61.952V437.5H500V500z"/>
	</g>
	<g>
		<rect x="437.5" y="375" style="fill:#150E56;" width="62.5" height="62.5"/>
	</g>
	<g>
		<g>
			<rect x="500" y="437.5" style="fill:#28B5B5;" width="62.5" height="62.5"/>
		</g>
		<g>
			<path style="fill:#150E56;" d="M500,500L500,500v-62.5h62.5v0C562.5,472.017,534.518,500,500,500z"/>
		</g>
	</g>
	<g>
		<g>
			<path style="fill:#28B5B5;" d="M125,344.437L125,344.437c0-17.639-14.299-31.938-31.937-31.938H62.5V375v62.5H125h62.5v-30.563
				c0-17.638-14.299-31.937-31.938-31.937l0,0C138.683,375,125,361.316,125,344.437z"/>
		</g>
		<g>
			<defs>
				<path id="SVGID_1_" d="M125,344.437L125,344.437c0-17.639-14.299-31.938-31.937-31.938H62.5V375v62.5H125h62.5v-30.563
					c0-17.638-14.299-31.937-31.938-31.937l0,0C138.683,375,125,361.316,125,344.437z"/>
			</defs>
			<clipPath id="SVGID_00000058588522153251855290000003238563596264255643_">
				<use xlink:href="#SVGID_1_"  style="overflow:visible;"/>
			</clipPath>
			<g style="clip-path:url(#SVGID_00000058588522153251855290000003238563596264255643_);">
				<g>
					<g>
						<path style="fill:#FFFFFF;" d="M85.187,321.375c17.059,0,30.938,13.879,30.938,30.938c0,17.404,14.159,31.562,31.562,31.562
							c17.059,0,30.938,13.878,30.938,30.937v29.563h-61.5h-61.5v-61.5v-61.5H85.187 M85.187,320.375H54.625v62.5v62.5h62.5h62.5
							v-30.563c0-17.638-14.299-31.937-31.938-31.937l0,0c-16.879,0-30.562-13.683-30.562-30.562v0
							C117.125,334.674,102.826,320.375,85.187,320.375L85.187,320.375z"/>
					</g>
				</g>
				<g>
					<g>
						<path style="fill:#FFFFFF;" d="M77.312,329.25c17.059,0,30.938,13.879,30.938,30.938c0,17.404,14.159,31.562,31.562,31.562
							c17.059,0,30.938,13.878,30.938,30.937v29.563h-61.5h-61.5v-61.5v-61.5H77.312 M77.312,328.25H46.75v62.5v62.5h62.5h62.5
							v-30.563c0-17.638-14.299-31.937-31.938-31.937l0,0c-16.879,0-30.562-13.683-30.562-30.562v0
							C109.25,342.549,94.951,328.25,77.312,328.25L77.312,328.25z"/>
					</g>
				</g>
				<g>
					<g>
						<path style="fill:#FFFFFF;" d="M69.437,337.125c17.059,0,30.938,13.879,30.938,30.938c0,17.404,14.159,31.562,31.562,31.562
							c17.059,0,30.938,13.878,30.938,30.937v29.563h-61.5h-61.5v-61.5v-61.5H69.437 M69.437,336.125H38.875v62.5v62.5h62.5h62.5
							v-30.563c0-17.638-14.299-31.937-31.938-31.937l0,0c-16.879,0-30.562-13.683-30.562-30.562v0
							C101.375,350.424,87.076,336.125,69.437,336.125L69.437,336.125z"/>
					</g>
				</g>
				<g>
					<g>
						<path style="fill:#FFFFFF;" d="M61.562,345c17.059,0,30.938,13.879,30.938,30.938c0,17.404,14.159,31.562,31.563,31.562
							c17.059,0,30.937,13.878,30.937,30.937V468H93.5H32v-61.5V345H61.562 M61.562,344H31v62.5V469h62.5H156v-30.563
							c0-17.638-14.299-31.937-31.937-31.937h0c-16.879,0-30.562-13.683-30.562-30.562v0C93.5,358.299,79.201,344,61.562,344
							L61.562,344z"/>
					</g>
				</g>
				<g>
					<g>
						<path style="fill:#FFFFFF;" d="M53.687,352.875c17.059,0,30.938,13.879,30.938,30.938c0,17.404,14.159,31.562,31.563,31.562
							c17.059,0,30.937,13.879,30.937,30.938v29.563h-61.5h-61.5v-61.5v-61.5H53.687 M53.687,351.875H23.125v62.5v62.5h62.5h62.5
							v-30.563c0-17.639-14.299-31.938-31.937-31.938h0c-16.879,0-30.562-13.683-30.562-30.562v0
							C85.625,366.174,71.326,351.875,53.687,351.875L53.687,351.875z"/>
					</g>
				</g>
				<g>
					<g>
						<path style="fill:#FFFFFF;" d="M45.812,360.75c17.059,0,30.938,13.879,30.938,30.938c0,17.404,14.159,31.562,31.563,31.562
							c17.059,0,30.937,13.879,30.937,30.938v29.563h-61.5h-61.5v-61.5v-61.5H45.812 M45.812,359.75H15.25v62.5v62.5h62.5h62.5
							v-30.563c0-17.639-14.299-31.938-31.937-31.938h0c-16.879,0-30.562-13.683-30.562-30.562l0,0
							C77.75,374.049,63.451,359.75,45.812,359.75L45.812,359.75z"/>
					</g>
				</g>
				<g>
					<g>
						<path style="fill:#FFFFFF;" d="M37.937,368.625c17.059,0,30.938,13.879,30.938,30.938c0,17.404,14.159,31.562,31.563,31.562
							c17.059,0,30.937,13.879,30.937,30.938v29.562h-61.5h-61.5v-61.5v-61.5H37.937 M37.937,367.625H7.375v62.5v62.5h62.5h62.5
							v-30.562c0-17.639-14.299-31.938-31.937-31.938h0c-16.879,0-30.562-13.683-30.562-30.562l0,0
							C69.875,381.924,55.576,367.625,37.937,367.625L37.937,367.625z"/>
					</g>
				</g>
				<g>
					<g>
						<path style="fill:#FFFFFF;" d="M30.062,376.5C47.121,376.5,61,390.378,61,407.437C61,424.841,75.159,439,92.563,439
							c17.059,0,30.937,13.879,30.937,30.938V499.5H62H0.5V438v-61.5H30.062 M30.062,375.5H-0.5V438v62.5H62h62.5v-30.562
							c0-17.639-14.299-31.938-31.937-31.938h0C75.683,438,62,424.316,62,407.437l0,0C62,389.799,47.701,375.5,30.062,375.5
							L30.062,375.5z"/>
					</g>
				</g>
				<g>
					<g>
						<path style="fill:#FFFFFF;" d="M22.187,384.375c17.059,0,30.938,13.879,30.938,30.938c0,17.404,14.159,31.562,31.563,31.562
							c17.059,0,30.937,13.879,30.937,30.938v29.562h-61.5h-61.5v-61.5v-61.5H22.187 M22.187,383.375H-8.375v62.5v62.5h62.5h62.5
							v-30.562c0-17.639-14.299-31.938-31.937-31.938h0c-16.879,0-30.562-13.683-30.562-30.562v0
							C54.125,397.674,39.826,383.375,22.187,383.375L22.187,383.375z"/>
					</g>
				</g>
				<g>
					<g>
						<path style="fill:#FFFFFF;" d="M14.312,392.25c17.059,0,30.938,13.879,30.938,30.938c0,17.404,14.159,31.562,31.563,31.562
							c17.059,0,30.937,13.879,30.937,30.938v29.562h-61.5h-61.5v-61.5v-61.5H14.312 M14.312,391.25H-16.25v62.5v62.5h62.5h62.5
							v-30.562c0-17.639-14.299-31.938-31.937-31.938h0c-16.879,0-30.562-13.683-30.562-30.562v0
							C46.25,405.549,31.951,391.25,14.312,391.25L14.312,391.25z"/>
					</g>
				</g>
			</g>
		</g>
	</g>
	<g>
		<g>
			<rect x="62.5" y="187.5" style="fill:#FFFFFF;" width="62.5" height="62.5"/>
		</g>
		<g>
			<g>
				<rect x="96.562" y="187.5" style="fill:#28B5B5;" width="5.625" height="62.5"/>
			</g>
			<g>
				<rect x="107.812" y="187.5" style="fill:#28B5B5;" width="5.625" height="62.5"/>
			</g>
			<g>
				<rect x="119.062" y="187.5" style="fill:#28B5B5;" width="5.938" height="62.5"/>
			</g>
			<g>
				<rect x="74.062" y="187.5" style="fill:#28B5B5;" width="5.625" height="62.5"/>
			</g>
			<g>
				<rect x="62.5" y="187.5" style="fill:#28B5B5;" width="5.938" height="62.5"/>
			</g>
			<g>
				<rect x="85.312" y="187.5" style="fill:#28B5B5;" width="5.625" height="62.5"/>
			</g>
		</g>
	</g>
	<g>
		<rect x="250" y="375" style="fill:#FFFFFF;" width="62.5" height="62.5"/>
		<g>
			<defs>
				<rect id="SVGID_00000060011452734580583460000000351048028318277249_" x="250" y="375" width="62.5" height="62.5"/>
			</defs>
			<clipPath id="SVGID_00000090255400996495307430000011298761764045908635_">
				<use xlink:href="#SVGID_00000060011452734580583460000000351048028318277249_"  style="overflow:visible;"/>
			</clipPath>
			<g style="clip-path:url(#SVGID_00000090255400996495307430000011298761764045908635_);">
				<g>
					
						<ellipse transform="matrix(0.7071 -0.7071 0.7071 0.7071 -191.9071 286.5281)" style="fill:#28B5B5;" cx="249.917" cy="374.916" rx="15.667" ry="15.667"/>
				</g>
				<g>
					
						<ellipse transform="matrix(0.161 -0.987 0.987 0.161 -134.0495 592.1494)" style="fill:#28B5B5;" cx="281.25" cy="374.916" rx="15.667" ry="15.667"/>
				</g>
				<g>
					
						<ellipse transform="matrix(0.7071 -0.7071 0.7071 0.7071 -173.5524 330.8402)" style="fill:#28B5B5;" cx="312.583" cy="374.916" rx="15.667" ry="15.667"/>
				</g>
				<g>
					
						<ellipse transform="matrix(0.7071 -0.7071 0.7071 0.7071 -214.063 295.7054)" style="fill:#28B5B5;" cx="249.917" cy="406.25" rx="15.667" ry="15.667"/>
				</g>
				<g>
					
						<ellipse transform="matrix(0.161 -0.987 0.987 0.161 -164.9743 618.439)" style="fill:#28B5B5;" cx="281.25" cy="406.25" rx="15.667" ry="15.667"/>
				</g>
				<g>
					
						<ellipse transform="matrix(0.7071 -0.7071 0.7071 0.7071 -195.7084 340.0175)" style="fill:#28B5B5;" cx="312.583" cy="406.25" rx="15.667" ry="15.667"/>
				</g>
				<g>
					
						<ellipse transform="matrix(0.2282 -0.9736 0.9736 0.2282 -233.1545 581.0384)" style="fill:#28B5B5;" cx="249.917" cy="437.583" rx="15.667" ry="15.667"/>
				</g>
				<g>
					
						<ellipse transform="matrix(0.9223 -0.3864 0.3864 0.9223 -147.2267 142.6455)" style="fill:#28B5B5;" cx="281.25" cy="437.583" rx="15.667" ry="15.667"/>
				</g>
				<g>
					
						<ellipse transform="matrix(0.2282 -0.9736 0.9736 0.2282 -184.7897 642.0513)" style="fill:#28B5B5;" cx="312.583" cy="437.583" rx="15.667" ry="15.667"/>
				</g>
			</g>
		</g>
	</g>
	<g>
		<g>
			<rect x="0" y="312.5" style="fill:#FFFFFF;" width="62.5" height="62.5"/>
		</g>
		<g>
			<defs>
				<rect id="SVGID_00000039845981212254874280000000844998058123409294_" x="0" y="312.5" width="62.5" height="62.5"/>
			</defs>
			<clipPath id="SVGID_00000029768094367207581300000008718052036196389027_">
				<use xlink:href="#SVGID_00000039845981212254874280000000844998058123409294_"  style="overflow:visible;"/>
			</clipPath>
			<g style="clip-path:url(#SVGID_00000029768094367207581300000008718052036196389027_);">
				<g>
					<circle style="fill:#150E56;" cx="-0.083" cy="312.416" r="15.667"/>
				</g>
				<g>
					<circle style="fill:#150E56;" cx="31.25" cy="312.416" r="15.667"/>
				</g>
				<g>
					<circle style="fill:#150E56;" cx="62.583" cy="312.416" r="15.667"/>
				</g>
				<g>
					
						<ellipse transform="matrix(0.5465 -0.8375 0.8375 0.5465 -287.9207 155.8308)" style="fill:#150E56;" cx="-0.083" cy="343.75" rx="15.667" ry="15.667"/>
				</g>
				<g>
					
						<ellipse transform="matrix(0.2298 -0.9732 0.9732 0.2298 -310.4838 295.186)" style="fill:#150E56;" cx="31.25" cy="343.75" rx="15.667" ry="15.667"/>
				</g>
				<g>
					
						<ellipse transform="matrix(0.7071 -0.7071 0.7071 0.7071 -224.7375 144.935)" style="fill:#150E56;" cx="62.583" cy="343.75" rx="15.667" ry="15.667"/>
				</g>
				<g>
					<circle style="fill:#150E56;" cx="-0.083" cy="375.083" r="15.667"/>
				</g>
				<g>
					<circle style="fill:#150E56;" cx="31.25" cy="375.083" r="15.667"/>
				</g>
				<g>
					<circle style="fill:#150E56;" cx="62.583" cy="375.083" r="15.667"/>
				</g>
			</g>
		</g>
	</g>
	<g>
		<g>
			<path style="fill:#FFFFFF;" d="M375,437.502V500H249.997c-34.515,0-62.497-27.983-62.497-62.497H375z"/>
		</g>
		<g>
			<defs>
				<path id="SVGID_00000082346987736278387260000016554033962698423729_" d="M375,437.502V500H249.997
					c-34.515,0-62.497-27.983-62.497-62.497H375z"/>
			</defs>
			<clipPath id="SVGID_00000007387056718452767270000009776389711180932016_">
				<use xlink:href="#SVGID_00000082346987736278387260000016554033962698423729_"  style="overflow:visible;"/>
			</clipPath>
			<g style="clip-path:url(#SVGID_00000007387056718452767270000009776389711180932016_);">
				<g>
					<rect x="187.5" y="471.562" style="fill:#FF5E78;" width="187.5" height="5.625"/>
				</g>
				<g>
					<rect x="187.5" y="482.812" style="fill:#FF5E78;" width="187.5" height="5.625"/>
				</g>
				<g>
					<rect x="187.5" y="494.062" style="fill:#FF5E78;" width="187.5" height="5.938"/>
				</g>
				<g>
					<rect x="187.5" y="449.062" style="fill:#FF5E78;" width="187.5" height="5.625"/>
				</g>
				<g>
					<rect x="187.5" y="437.5" style="fill:#FF5E78;" width="187.5" height="5.938"/>
				</g>
				<g>
					<rect x="187.5" y="460.312" style="fill:#FF5E78;" width="187.5" height="5.625"/>
				</g>
			</g>
		</g>
	</g>
	<g>
		<g>
			<rect x="0" y="125" style="fill:#FF5E78;" width="62.5" height="62.5"/>
		</g>
		<g>
			<g>
				<path style="fill:#FFFFFF;" d="M31.25,125L31.25,125C13.991,125,0,138.991,0,156.25v0c0,17.259,13.991,31.25,31.25,31.25h0
					c17.259,0,31.25-13.991,31.25-31.25v0C62.5,138.991,48.509,125,31.25,125z"/>
			</g>
			<g>
				<path style="fill:#150E56;" d="M31.25,142.122L31.25,142.122c-7.803,0-14.128,6.325-14.128,14.128v0
					c0,7.803,6.325,14.128,14.128,14.128l0,0c7.803,0,14.128-6.325,14.128-14.128v0C45.378,148.447,39.053,142.122,31.25,142.122z"
					/>
			</g>
		</g>
	</g>
	<g>
		<g>
			<polygon style="fill:#28B5B5;" points="750,250 750,312.5 750,375 687.5,375 625,375 			"/>
		</g>
		<g>
			<defs>
				<polygon id="SVGID_00000132076248072572891760000004649594609124270497_" points="750,250 750,312.5 750,375 687.5,375 625,375 
									"/>
			</defs>
			<clipPath id="SVGID_00000163066748751534295620000016726617090254802876_">
				<use xlink:href="#SVGID_00000132076248072572891760000004649594609124270497_"  style="overflow:visible;"/>
			</clipPath>
			<g style="clip-path:url(#SVGID_00000163066748751534295620000016726617090254802876_);">
				<line style="fill:none;stroke:#FFFFFF;stroke-miterlimit:10;" x1="631.687" y1="381.687" x2="756.687" y2="256.687"/>
				<line style="fill:none;stroke:#FFFFFF;stroke-miterlimit:10;" x1="638.375" y1="388.374" x2="763.375" y2="263.374"/>
				<line style="fill:none;stroke:#FFFFFF;stroke-miterlimit:10;" x1="645.062" y1="395.062" x2="770.062" y2="270.062"/>
				<line style="fill:none;stroke:#FFFFFF;stroke-miterlimit:10;" x1="651.749" y1="401.749" x2="776.749" y2="276.749"/>
				<line style="fill:none;stroke:#FFFFFF;stroke-miterlimit:10;" x1="658.437" y1="408.436" x2="783.437" y2="283.436"/>
				<line style="fill:none;stroke:#FFFFFF;stroke-miterlimit:10;" x1="665.124" y1="415.124" x2="790.124" y2="290.124"/>
				<line style="fill:none;stroke:#FFFFFF;stroke-miterlimit:10;" x1="671.811" y1="421.811" x2="796.811" y2="296.811"/>
				<line style="fill:none;stroke:#FFFFFF;stroke-miterlimit:10;" x1="678.499" y1="428.498" x2="803.499" y2="303.498"/>
				<line style="fill:none;stroke:#FFFFFF;stroke-miterlimit:10;" x1="685.186" y1="435.185" x2="810.186" y2="310.186"/>
			</g>
		</g>
	</g>
	<g>
		<g>
			<rect x="125" y="-0.001" style="fill:#28B5B5;" width="62.5" height="62.5"/>
		</g>
		<g>
			<g>
				<path style="fill:#FFFFFF;" d="M156.25-0.001L156.25-0.001c-17.259,0-31.25,13.991-31.25,31.25v0
					c0,17.259,13.991,31.25,31.25,31.25h0c17.259,0,31.25-13.991,31.25-31.25v0C187.5,13.99,173.509-0.001,156.25-0.001z"/>
			</g>
			<g>
				<path style="fill:#FF5E78;" d="M156.25,17.121L156.25,17.121c-7.803,0-14.128,6.325-14.128,14.128v0
					c0,7.802,6.325,14.128,14.128,14.128l0,0c7.803,0,14.128-6.325,14.128-14.128v0C170.378,23.446,164.052,17.121,156.25,17.121z"
					/>
			</g>
		</g>
	</g>
	<g>
		<g>
			<path style="fill:#150E56;" d="M356.692,80.804c-11.31-11.31-26.932-18.308-44.19-18.308H312.5v9.755
				c29.133,0,52.75,23.617,52.75,52.75H375C375,107.744,368.002,92.114,356.692,80.804z"/>
		</g>
		<g>
			<path style="fill:#FFFFFF;" d="M312.5,72.251v9.771c23.737,0,42.979,19.242,42.979,42.979h9.771
				C365.25,95.868,341.633,72.251,312.5,72.251z"/>
		</g>
		<g>
			<path style="fill:#150E56;" d="M345.937,125.001h9.541c0-23.737-19.242-42.979-42.979-42.979v9.541
				C330.967,91.564,345.937,106.534,345.937,125.001z"/>
		</g>
		<g>
			<path style="fill:#FFFFFF;" d="M312.5,91.564v8.748c13.636,0,24.69,11.054,24.69,24.69h8.747
				C345.937,106.534,330.967,91.564,312.5,91.564z"/>
		</g>
		<g>
			<path style="fill:#150E56;" d="M327.51,125.001h9.679c0-13.636-11.054-24.69-24.69-24.69v9.679
				C320.563,110.503,326.999,116.938,327.51,125.001z"/>
		</g>
		<g>
			<path style="fill:#FFFFFF;" d="M312.5,109.991v8.018c3.645,0.464,6.528,3.347,6.992,6.992h8.018
				C326.999,116.938,320.563,110.503,312.5,109.991z"/>
		</g>
		<g>
			<path style="fill:#150E56;" d="M319.492,125.001c-0.464-3.645-3.347-6.528-6.992-6.992v6.992H319.492z"/>
		</g>
		<g>
			<rect x="249.997" y="62.496" style="fill:#150E56;" width="62.502" height="9.755"/>
		</g>
		<g>
			<rect x="249.997" y="109.991" style="fill:#FFFFFF;" width="62.502" height="8.018"/>
		</g>
		<g>
			<rect x="249.997" y="118.009" style="fill:#150E56;" width="62.502" height="6.992"/>
		</g>
		<g>
			<rect x="249.997" y="100.311" style="fill:#150E56;" width="62.502" height="9.679"/>
		</g>
		<g>
			<rect x="249.997" y="91.585" style="fill:#FFFFFF;" width="62.502" height="8.726"/>
		</g>
		<g>
			<rect x="249.997" y="82.022" style="fill:#150E56;" width="62.502" height="9.563"/>
		</g>
		<g>
			<rect x="249.997" y="72.251" style="fill:#FFFFFF;" width="62.502" height="9.771"/>
		</g>
	</g>
	<g>
		<g>
			<path style="fill:#FF5E78;" d="M0,500v-9.75c29.137,0,52.755-23.617,52.755-52.747v-62.505h9.75v62.505
				c0,17.257-6.998,32.88-18.308,44.19S17.257,500,0,500z"/>
		</g>
		<g>
			<path style="fill:#FFFFFF;" d="M0,490.25v-9.773c23.737,0,42.982-19.237,42.982-42.975v-62.505h9.773v62.505
				C52.755,466.632,29.137,490.25,0,490.25z"/>
		</g>
		<g>
			<path style="fill:#FF5E78;" d="M0,480.477v-9.54c18.473,0,33.442-14.97,33.442-33.435H33.42v-62.505h9.563v62.505
				C42.982,461.24,23.737,480.477,0,480.477z"/>
		</g>
		<g>
			<path style="fill:#FFFFFF;" d="M0,470.937v-8.745c13.635,0,24.69-11.055,24.69-24.69v-62.505h8.73v62.505h0.023
				C33.442,455.967,18.472,470.937,0,470.937z"/>
		</g>
		<g>
			<path style="fill:#FF5E78;" d="M0,462.192v-9.682c8.062-0.51,14.498-6.945,15.015-15.007v-62.505h9.675v62.505
				C24.69,451.137,13.635,462.192,0,462.192z"/>
		</g>
		<g>
			<path style="fill:#FFFFFF;" d="M0,452.51v-8.018c3.645-0.465,6.532-3.345,6.997-6.99v-62.505h8.018v62.505
				C14.498,445.565,8.062,452,0,452.51z"/>
		</g>
		<g>
			<path style="fill:#FF5E78;" d="M0,444.492v-69.495h6.997v62.505C6.532,441.147,3.645,444.027,0,444.492z"/>
		</g>
	</g>
	<g>
		<g>
			<polygon style="fill:#150E56;" points="62.5,124.999 125,124.999 125,116.07 8.929,116.07 8.929,-0.001 0,-0.001 0,62.499 
				0,124.999 			"/>
		</g>
		<g>
			<polygon style="fill:#FFFFFF;" points="125,116.07 125,107.141 17.858,107.141 17.858,-0.001 8.929,-0.001 8.929,116.07 			"/>
		</g>
		<g>
			<polygon style="fill:#150E56;" points="125,107.141 125,98.249 26.75,98.249 26.75,-0.001 17.858,-0.001 17.858,107.141 			"/>
		</g>
		<g>
			<polygon style="fill:#FFFFFF;" points="125,98.249 125,89.284 35.715,89.284 35.715,-0.001 26.75,-0.001 26.75,98.249 			"/>
		</g>
		<g>
			<polygon style="fill:#150E56;" points="125,89.284 125,80.374 44.625,80.374 44.625,-0.001 35.715,-0.001 35.715,89.284 			"/>
		</g>
		<g>
			<polygon style="fill:#FFFFFF;" points="125,80.374 125,71.427 53.571,71.427 53.571,-0.001 44.625,-0.001 44.625,80.374 			"/>
		</g>
		<g>
			<polygon style="fill:#150E56;" points="125,71.427 125,62.499 62.5,62.499 62.5,-0.001 53.571,-0.001 53.571,71.427 			"/>
		</g>
	</g>
	<g>
		<g>
			<rect x="62.5" y="-0.001" style="fill:#28B5B5;" width="62.5" height="62.5"/>
		</g>
		<g>
			<defs>
				
					<rect id="SVGID_00000077318145800744908700000008265210756650858132_" x="62.5" y="-0.001" transform="matrix(-1 -1.224647e-16 1.224647e-16 -1 187.4998 62.4974)" width="62.5" height="62.5"/>
			</defs>
			<clipPath id="SVGID_00000056424109825657536760000012550311052612733601_">
				<use xlink:href="#SVGID_00000077318145800744908700000008265210756650858132_"  style="overflow:visible;"/>
			</clipPath>
			<g style="clip-path:url(#SVGID_00000056424109825657536760000012550311052612733601_);">
				<g>
					
						<ellipse transform="matrix(0.7071 -0.7071 0.7071 0.7071 -7.6161 106.777)" style="fill:#FFFFFF;" cx="125.083" cy="62.582" rx="15.667" ry="15.667"/>
				</g>
				<g>
					
						<ellipse transform="matrix(0.9154 -0.4026 0.4026 0.9154 -17.2612 43.0349)" style="fill:#FFFFFF;" cx="93.75" cy="62.582" rx="15.667" ry="15.667"/>
				</g>
				<g>
					
						<ellipse transform="matrix(0.2298 -0.9732 0.9732 0.2298 -12.8316 108.9505)" style="fill:#FFFFFF;" cx="62.417" cy="62.582" rx="15.667" ry="15.667"/>
				</g>
				<g>
					
						<ellipse transform="matrix(0.7071 -0.7071 0.7071 0.7071 14.5399 97.5997)" style="fill:#FFFFFF;" cx="125.083" cy="31.249" rx="15.667" ry="15.667"/>
				</g>
				<g>
					
						<ellipse transform="matrix(0.9154 -0.4026 0.4026 0.9154 -4.6476 40.3839)" style="fill:#FFFFFF;" cx="93.75" cy="31.249" rx="15.667" ry="15.667"/>
				</g>
				<g>
					
						<ellipse transform="matrix(0.2298 -0.9732 0.9732 0.2298 17.6635 84.8161)" style="fill:#FFFFFF;" cx="62.417" cy="31.249" rx="15.667" ry="15.667"/>
				</g>
				<g>
					
						<ellipse transform="matrix(0.6365 -0.7713 0.7713 0.6365 45.5357 96.4452)" style="fill:#FFFFFF;" cx="125.083" cy="-0.085" rx="15.667" ry="15.667"/>
				</g>
				<g>
					
						<ellipse transform="matrix(0.8649 -0.5019 0.5019 0.8649 12.708 47.0457)" style="fill:#FFFFFF;" cx="93.75" cy="-0.085" rx="15.667" ry="15.667"/>
				</g>
				<g>
					
						<ellipse transform="matrix(0.2486 -0.9686 0.9686 0.2486 46.981 60.3933)" style="fill:#FFFFFF;" cx="62.417" cy="-0.085" rx="15.667" ry="15.667"/>
				</g>
			</g>
		</g>
	</g>
	<g>
		<g>
			<rect x="687.5" y="437.5" style="fill:#28B5B5;" width="62.5" height="62.5"/>
		</g>
		<g>
			<defs>
				
					<rect id="SVGID_00000000926875830076265340000015373527725546000299_" x="687.5" y="437.5" transform="matrix(-1 -1.224647e-16 1.224647e-16 -1 1437.5 937.4991)" width="62.5" height="62.5"/>
			</defs>
			<clipPath id="SVGID_00000155136939964190103030000001007526797885311629_">
				<use xlink:href="#SVGID_00000000926875830076265340000015373527725546000299_"  style="overflow:visible;"/>
			</clipPath>
			<g style="clip-path:url(#SVGID_00000155136939964190103030000001007526797885311629_);">
				<g>
					
						<ellipse transform="matrix(0.2996 -0.9541 0.9541 0.2996 48.2728 1065.9183)" style="fill:#FFFFFF;" cx="750.083" cy="500.083" rx="15.667" ry="15.667"/>
				</g>
				<g>
					
						<ellipse transform="matrix(0.8739 -0.486 0.486 0.8739 -152.4501 412.3625)" style="fill:#FFFFFF;" cx="718.75" cy="500.083" rx="15.667" ry="15.667"/>
				</g>
				<g>
					
						<ellipse transform="matrix(0.2129 -0.9771 0.9771 0.2129 52.4382 1065.2615)" style="fill:#FFFFFF;" cx="687.417" cy="500.083" rx="15.667" ry="15.667"/>
				</g>
				<g>
					
						<ellipse transform="matrix(0.5042 -0.8636 0.8636 0.5042 -32.9094 880.1782)" style="fill:#FFFFFF;" cx="750.083" cy="468.75" rx="15.667" ry="15.667"/>
				</g>
				<g>
					
						<ellipse transform="matrix(0.1812 -0.9834 0.9834 0.1812 127.5007 1090.6433)" style="fill:#FFFFFF;" cx="718.75" cy="468.75" rx="15.667" ry="15.667"/>
				</g>
				<g>
					
						<ellipse transform="matrix(0.7689 -0.6394 0.6394 0.7689 -140.842 547.8401)" style="fill:#FFFFFF;" cx="687.417" cy="468.75" rx="15.667" ry="15.667"/>
				</g>
				<g>
					
						<ellipse transform="matrix(0.2996 -0.9541 0.9541 0.2996 108.0616 1022.0239)" style="fill:#FFFFFF;" cx="750.083" cy="437.416" rx="15.667" ry="15.667"/>
				</g>
				<g>
					
						<ellipse transform="matrix(0.8739 -0.486 0.486 0.8739 -121.9929 404.4632)" style="fill:#FFFFFF;" cx="718.75" cy="437.416" rx="15.667" ry="15.667"/>
				</g>
				<g>
					
						<ellipse transform="matrix(0.2129 -0.9771 0.9771 0.2129 113.6678 1015.9376)" style="fill:#FFFFFF;" cx="687.417" cy="437.416" rx="15.667" ry="15.667"/>
				</g>
			</g>
		</g>
	</g>
	<g>
		<g>
			<rect x="375" y="437.5" style="fill:#150E56;" width="62.5" height="62.5"/>
		</g>
		<g>
			<g>
				<circle style="fill:#FFFFFF;" cx="384.243" cy="446.743" r="4.993"/>
			</g>
			<g>
				<circle style="fill:#FFFFFF;" cx="398.914" cy="446.743" r="4.993"/>
			</g>
			<g>
				<circle style="fill:#FFFFFF;" cx="413.585" cy="446.743" r="4.993"/>
			</g>
			<g>
				<path style="fill:#FFFFFF;" d="M433.25,446.743c0,2.758-2.236,4.993-4.993,4.993c-2.758,0-4.993-2.236-4.993-4.993
					c0-2.758,2.236-4.993,4.993-4.993C431.014,441.75,433.25,443.985,433.25,446.743z"/>
			</g>
			<g>
				<path style="fill:#FFFFFF;" d="M389.236,461.414c0,2.758-2.236,4.993-4.993,4.993c-2.758,0-4.993-2.236-4.993-4.993
					c0-2.758,2.236-4.993,4.993-4.993C387.001,456.421,389.236,458.656,389.236,461.414z"/>
			</g>
			<g>
				<path style="fill:#FFFFFF;" d="M403.908,461.414c0,2.758-2.236,4.993-4.993,4.993c-2.758,0-4.993-2.236-4.993-4.993
					c0-2.758,2.236-4.993,4.993-4.993C401.672,456.421,403.908,458.656,403.908,461.414z"/>
			</g>
			<g>
				<path style="fill:#FFFFFF;" d="M418.579,461.414c0,2.758-2.236,4.993-4.993,4.993c-2.758,0-4.993-2.236-4.993-4.993
					c0-2.758,2.235-4.993,4.993-4.993C416.343,456.421,418.579,458.656,418.579,461.414z"/>
			</g>
			<g>
				<path style="fill:#FFFFFF;" d="M433.25,461.414c0,2.758-2.236,4.993-4.993,4.993c-2.758,0-4.993-2.236-4.993-4.993
					c0-2.758,2.236-4.993,4.993-4.993C431.014,456.421,433.25,458.656,433.25,461.414z"/>
			</g>
			<g>
				<path style="fill:#FFFFFF;" d="M389.236,476.085c0,2.758-2.236,4.993-4.993,4.993c-2.758,0-4.993-2.236-4.993-4.993
					c0-2.758,2.236-4.993,4.993-4.993C387.001,471.092,389.236,473.327,389.236,476.085z"/>
			</g>
			<g>
				<path style="fill:#FFFFFF;" d="M403.908,476.085c0,2.758-2.236,4.993-4.993,4.993c-2.758,0-4.993-2.236-4.993-4.993
					c0-2.758,2.236-4.993,4.993-4.993C401.672,471.092,403.908,473.327,403.908,476.085z"/>
			</g>
			<g>
				<path style="fill:#FFFFFF;" d="M418.579,476.085c0,2.758-2.236,4.993-4.993,4.993c-2.758,0-4.993-2.236-4.993-4.993
					c0-2.758,2.235-4.993,4.993-4.993C416.343,471.092,418.579,473.327,418.579,476.085z"/>
			</g>
			<g>
				<path style="fill:#FFFFFF;" d="M433.25,476.085c0,2.758-2.236,4.993-4.993,4.993c-2.758,0-4.993-2.236-4.993-4.993
					c0-2.758,2.236-4.993,4.993-4.993C431.014,471.092,433.25,473.327,433.25,476.085z"/>
			</g>
			<g>
				<circle style="fill:#FFFFFF;" cx="384.243" cy="490.756" r="4.993"/>
			</g>
			<g>
				<circle style="fill:#FFFFFF;" cx="398.914" cy="490.756" r="4.993"/>
			</g>
			<g>
				<circle style="fill:#FFFFFF;" cx="413.585" cy="490.756" r="4.993"/>
			</g>
			<g>
				<path style="fill:#FFFFFF;" d="M433.25,490.756c0,2.758-2.236,4.993-4.993,4.993c-2.758,0-4.993-2.236-4.993-4.993
					c0-2.758,2.236-4.993,4.993-4.993C431.014,485.763,433.25,487.999,433.25,490.756z"/>
			</g>
		</g>
	</g>
	<g>
		<g>
			<rect x="187.5" y="-0.001" style="fill:#150E56;" width="62.5" height="62.5"/>
		</g>
		<g>
			<g>
				<path style="fill:#FFFFFF;" d="M201.737,9.242c0,2.758-2.236,4.993-4.993,4.993c-2.758,0-4.993-2.236-4.993-4.993
					c0-2.758,2.236-4.993,4.993-4.993C199.501,4.249,201.737,6.484,201.737,9.242z"/>
			</g>
			<g>
				<path style="fill:#FFFFFF;" d="M216.408,9.242c0,2.758-2.236,4.993-4.993,4.993c-2.758,0-4.993-2.236-4.993-4.993
					c0-2.758,2.236-4.993,4.993-4.993C214.172,4.249,216.408,6.484,216.408,9.242z"/>
			</g>
			<g>
				<path style="fill:#FFFFFF;" d="M231.079,9.242c0,2.758-2.236,4.993-4.993,4.993c-2.758,0-4.993-2.236-4.993-4.993
					c0-2.758,2.236-4.993,4.993-4.993C228.843,4.249,231.079,6.484,231.079,9.242z"/>
			</g>
			<g>
				<path style="fill:#FFFFFF;" d="M245.75,9.242c0,2.758-2.236,4.993-4.993,4.993c-2.758,0-4.993-2.236-4.993-4.993
					c0-2.758,2.236-4.993,4.993-4.993C243.514,4.249,245.75,6.484,245.75,9.242z"/>
			</g>
			<g>
				<path style="fill:#FFFFFF;" d="M201.737,23.913c0,2.758-2.236,4.993-4.993,4.993c-2.758,0-4.993-2.236-4.993-4.993
					c0-2.758,2.236-4.993,4.993-4.993C199.501,18.92,201.737,21.155,201.737,23.913z"/>
			</g>
			<g>
				<path style="fill:#FFFFFF;" d="M216.408,23.913c0,2.758-2.236,4.993-4.993,4.993c-2.758,0-4.993-2.236-4.993-4.993
					c0-2.758,2.236-4.993,4.993-4.993C214.172,18.92,216.408,21.155,216.408,23.913z"/>
			</g>
			<g>
				<path style="fill:#FFFFFF;" d="M231.079,23.913c0,2.758-2.236,4.993-4.993,4.993c-2.758,0-4.993-2.236-4.993-4.993
					c0-2.758,2.236-4.993,4.993-4.993C228.843,18.92,231.079,21.155,231.079,23.913z"/>
			</g>
			<g>
				<path style="fill:#FFFFFF;" d="M245.75,23.913c0,2.758-2.236,4.993-4.993,4.993c-2.758,0-4.993-2.236-4.993-4.993
					c0-2.758,2.236-4.993,4.993-4.993C243.514,18.92,245.75,21.155,245.75,23.913z"/>
			</g>
			<g>
				<path style="fill:#FFFFFF;" d="M201.737,38.584c0,2.758-2.236,4.993-4.993,4.993c-2.758,0-4.993-2.236-4.993-4.993
					c0-2.758,2.236-4.993,4.993-4.993C199.501,33.591,201.737,35.826,201.737,38.584z"/>
			</g>
			<g>
				<path style="fill:#FFFFFF;" d="M216.408,38.584c0,2.758-2.236,4.993-4.993,4.993c-2.758,0-4.993-2.236-4.993-4.993
					c0-2.758,2.236-4.993,4.993-4.993C214.172,33.591,216.408,35.826,216.408,38.584z"/>
			</g>
			<g>
				<path style="fill:#FFFFFF;" d="M231.079,38.584c0,2.758-2.236,4.993-4.993,4.993c-2.758,0-4.993-2.236-4.993-4.993
					c0-2.758,2.236-4.993,4.993-4.993C228.843,33.591,231.079,35.826,231.079,38.584z"/>
			</g>
			<g>
				<path style="fill:#FFFFFF;" d="M245.75,38.584c0,2.758-2.236,4.993-4.993,4.993c-2.758,0-4.993-2.236-4.993-4.993
					c0-2.758,2.236-4.993,4.993-4.993C243.514,33.591,245.75,35.826,245.75,38.584z"/>
			</g>
			<g>
				<path style="fill:#FFFFFF;" d="M201.737,53.255c0,2.758-2.236,4.993-4.993,4.993c-2.758,0-4.993-2.236-4.993-4.993
					c0-2.758,2.236-4.993,4.993-4.993C199.501,48.262,201.737,50.498,201.737,53.255z"/>
			</g>
			<g>
				<path style="fill:#FFFFFF;" d="M216.408,53.255c0,2.758-2.236,4.993-4.993,4.993c-2.758,0-4.993-2.236-4.993-4.993
					c0-2.758,2.236-4.993,4.993-4.993C214.172,48.262,216.408,50.498,216.408,53.255z"/>
			</g>
			<g>
				<path style="fill:#FFFFFF;" d="M231.079,53.255c0,2.758-2.236,4.993-4.993,4.993c-2.758,0-4.993-2.236-4.993-4.993
					c0-2.758,2.236-4.993,4.993-4.993C228.843,48.262,231.079,50.498,231.079,53.255z"/>
			</g>
			<g>
				<path style="fill:#FFFFFF;" d="M245.75,53.255c0,2.758-2.236,4.993-4.993,4.993c-2.758,0-4.993-2.236-4.993-4.993
					c0-2.758,2.236-4.993,4.993-4.993C243.514,48.262,245.75,50.498,245.75,53.255z"/>
			</g>
		</g>
	</g>
	<g>
		<g>
			<rect x="687.5" y="375" style="fill:#FFFFFF;" width="62.5" height="62.5"/>
		</g>
		<g>
			<g>
				<rect x="687.5" y="409.062" style="fill:#150E56;" width="62.5" height="5.625"/>
			</g>
			<g>
				<rect x="687.5" y="420.312" style="fill:#150E56;" width="62.5" height="5.625"/>
			</g>
			<g>
				<rect x="687.5" y="431.562" style="fill:#150E56;" width="62.5" height="5.938"/>
			</g>
			<g>
				<rect x="687.5" y="386.562" style="fill:#150E56;" width="62.5" height="5.625"/>
			</g>
			<g>
				<rect x="687.5" y="375" style="fill:#150E56;" width="62.5" height="5.938"/>
			</g>
			<g>
				<rect x="687.5" y="397.812" style="fill:#150E56;" width="62.5" height="5.625"/>
			</g>
		</g>
	</g>
	<g>
		<rect x="125" y="62.5" style="fill:#150E56;" width="62.5" height="62.5"/>
	</g>
	<g>
		<path style="fill:#FF5E78;" d="M593.75,437.5L593.75,437.5c-17.259,0-31.25-13.991-31.25-31.25v0
			c0-17.259,13.991-31.25,31.25-31.25l0,0c17.259,0,31.25,13.991,31.25,31.25v0C625,423.509,611.009,437.5,593.75,437.5z"/>
	</g>
	<g>
		<path style="fill:#150E56;" d="M625,500h-31.25c-17.259,0-31.25-13.991-31.25-31.25l0,0c0-17.259,13.991-31.25,31.25-31.25H625
			V500z"/>
	</g>
	<g>
		<rect x="625" y="375" style="fill:#150E56;" width="62.5" height="62.5"/>
	</g>
	<g>
		<rect x="625" y="437.5" style="fill:#FF5E78;" width="62.5" height="62.5"/>
	</g>
	<g>
		<path style="fill:#150E56;" d="M750,250h-31.25c-17.259,0-31.25-13.991-31.25-31.25l0,0c0-17.259,13.991-31.25,31.25-31.25H750
			V250z"/>
	</g>
</g>
</svg>
