<?xml version="1.0" encoding="utf-8"?>
<!-- Generator: Adobe Illustrator 27.5.0, SVG Export Plug-In . SVG Version: 6.00 Build 0)  -->
<svg version="1.1" id="BACKGROUND" xmlns="http://www.w3.org/2000/svg" xmlns:xlink="http://www.w3.org/1999/xlink" x="0px" y="0px"
	 viewBox="0 0 750 500" style="enable-background:new 0 0 750 500;" xml:space="preserve">
<g>
	<rect style="fill:#FFFFFF;" width="750" height="500"/>
	<g>
		<defs>
			<rect id="SVGID_1_" width="750" height="500"/>
		</defs>
		<clipPath id="SVGID_00000056415821907713008230000007819329873552460931_">
			<use xlink:href="#SVGID_1_"  style="overflow:visible;"/>
		</clipPath>
		<g style="clip-path:url(#SVGID_00000056415821907713008230000007819329873552460931_);">
			<g>
				<path style="fill:none;stroke:#424242;stroke-width:20;stroke-miterlimit:10;" d="M561.576,338.797
					c13.742,0,24.881,11.14,24.881,24.881s-11.14,24.881-24.881,24.881"/>
				<path style="fill:none;stroke:#00E5FF;stroke-width:20;stroke-miterlimit:10;" d="M557.134,334.354
					c13.742,0,24.881,11.14,24.881,24.881c0,13.742-11.14,24.881-24.881,24.881"/>
				<path style="fill:none;stroke:#424242;stroke-width:20;stroke-miterlimit:10;" d="M507.371,334.354
					c13.742,0,24.881,11.14,24.881,24.881c0,13.742-11.14,24.881-24.881,24.881"/>
			</g>
			<g>
				<path style="fill:none;stroke:#424242;stroke-width:2;stroke-linecap:round;stroke-linejoin:round;stroke-miterlimit:10;" d="
					M85.466,355.665l-37.794,37.794c-5.693,5.693-14.922,5.693-20.615,0l0,0c-5.693-5.693-5.693-14.922,0-20.615l37.794-37.794"/>
				<path style="fill:#00E5FF;" d="M41.945,387.876c-2.569,2.569-6.735,2.569-9.305,0c-2.569-2.57-2.569-6.735,0-9.305
					c2.569-2.569,6.735-2.569,9.305,0C44.515,381.14,44.515,385.306,41.945,387.876z"/>
				<path style="fill:#00E5FF;" d="M56.118,373.703c-2.569,2.569-6.735,2.569-9.305,0c-2.569-2.569-2.569-6.735,0-9.305
					c2.569-2.569,6.735-2.569,9.305,0C58.688,366.967,58.688,371.133,56.118,373.703z"/>
				<path style="fill:#00E5FF;" d="M70.291,359.53c-2.57,2.569-6.735,2.569-9.305,0c-2.569-2.569-2.569-6.735,0-9.305
					c2.569-2.569,6.735-2.569,9.305,0C72.86,352.795,72.86,356.961,70.291,359.53z"/>
				<path style="fill:#424242;" d="M84.464,345.357c-2.57,2.569-6.735,2.569-9.305,0c-2.569-2.569-2.569-6.735,0-9.305
					c2.569-2.569,6.735-2.569,9.305,0C87.033,338.622,87.033,342.788,84.464,345.357z"/>
				<path style="fill:#424242;" d="M98.636,331.185c-2.569,2.569-6.735,2.569-9.305,0c-2.569-2.57-2.569-6.735,0-9.305
					c2.57-2.569,6.735-2.569,9.305,0C101.206,324.449,101.206,328.615,98.636,331.185z"/>
				<path style="fill:#424242;" d="M112.809,317.012c-2.569,2.569-6.735,2.569-9.305,0c-2.569-2.569-2.569-6.735,0-9.305
					c2.57-2.569,6.735-2.569,9.305,0C115.379,310.276,115.379,314.442,112.809,317.012z"/>
				<path style="fill:#424242;" d="M126.982,302.839c-2.57,2.569-6.735,2.569-9.305,0c-2.569-2.569-2.569-6.735,0-9.305
					c2.569-2.569,6.735-2.569,9.305,0C129.551,296.104,129.551,300.27,126.982,302.839z"/>
			</g>
			<g>
				<path style="fill:#424242;" d="M533.75,289.124c-2.569,2.569-6.735,2.569-9.305,0c-2.569-2.569-2.569-6.735,0-9.305
					c2.569-2.569,6.735-2.569,9.305,0C536.319,282.388,536.319,286.554,533.75,289.124z"/>
				<path style="fill:#424242;" d="M547.922,274.951c-2.569,2.569-6.735,2.569-9.305,0c-2.569-2.57-2.569-6.735,0-9.305
					c2.57-2.569,6.735-2.569,9.305,0C550.492,268.216,550.492,272.382,547.922,274.951z"/>
				<path style="fill:#424242;" d="M562.095,260.778c-2.57,2.569-6.735,2.569-9.305,0c-2.57-2.569-2.57-6.735,0-9.305
					c2.569-2.569,6.735-2.569,9.305,0C564.664,254.043,564.664,258.209,562.095,260.778z"/>
			</g>
			<g>
				<path style="fill:none;stroke:#424242;stroke-width:2;stroke-linecap:round;stroke-linejoin:round;stroke-miterlimit:10;" d="
					M711.482,279.358l-54.966,54.966c-5.519,5.519-14.468,5.519-19.987,0l0,0c-5.519-5.519-5.519-14.468,0-19.987l54.966-54.966
					c5.519-5.519,14.468-5.519,19.988,0l0,0C717.001,264.89,717.001,273.839,711.482,279.358z"/>
				
					<circle style="fill:none;stroke:#424242;stroke-width:2;stroke-linecap:round;stroke-linejoin:round;stroke-miterlimit:10;" cx="646.453" cy="324.4" r="14.035"/>
			</g>
			<g>
				<circle style="fill:none;stroke:#424242;stroke-width:14;stroke-miterlimit:10;" cx="304.028" cy="83.028" r="20"/>
				<circle style="fill:none;stroke:#00E5FF;stroke-width:14;stroke-miterlimit:10;" cx="300.676" cy="79.676" r="20"/>
			</g>
			<g>
				<path style="fill:none;stroke:#424242;stroke-width:10;stroke-miterlimit:10;" d="M618.339,215.687c11.046,0,20,8.954,20,20
					s-8.954,20-20,20c-11.046,0-20-8.954-20-20"/>
				<path style="fill:none;stroke:#00E5FF;stroke-width:10;stroke-miterlimit:10;" d="M614.987,212.335c11.046,0,20,8.954,20,20
					s-8.954,20-20,20s-20-8.954-20-20"/>
			</g>
			<g>
				<g>
					
						<rect x="627.238" y="387.162" transform="matrix(0.7071 -0.7071 0.7071 0.7071 -93.1146 568.0626)" style="fill:#424242;" width="23.833" height="18.538"/>
				</g>
				<g>
					
						<rect x="602.257" y="412.142" transform="matrix(0.7071 -0.7071 0.7071 0.7071 -118.0951 557.7148)" style="fill:#424242;" width="23.833" height="18.538"/>
				</g>
				<g>
					
						<rect x="577.277" y="437.122" transform="matrix(0.7071 -0.7071 0.7071 0.7071 -143.0756 547.3676)" style="fill:#424242;" width="23.833" height="18.538"/>
				</g>
				<g>
					
						<rect x="552.295" y="462.104" transform="matrix(0.7071 -0.7071 0.7071 0.7071 -168.0572 537.0198)" style="fill:#424242;" width="23.833" height="18.538"/>
				</g>
				<g>
					
						<rect x="527.315" y="487.084" transform="matrix(0.7071 -0.7071 0.7071 0.7071 -193.0376 526.6727)" style="fill:#424242;" width="23.833" height="18.538"/>
				</g>
				<g>
					
						<rect x="502.334" y="512.065" transform="matrix(0.7071 -0.7071 0.7071 0.7071 -218.018 516.3254)" style="fill:#424242;" width="23.833" height="18.538"/>
				</g>
			</g>
			<g>
				<g>
					
						<rect x="357.633" y="-78.192" transform="matrix(0.7071 -0.7071 0.7071 0.7071 156.9746 241.1243)" style="fill:#424242;" width="23.833" height="18.538"/>
				</g>
				<g>
					
						<rect x="332.653" y="-53.211" transform="matrix(0.7071 -0.7071 0.7071 0.7071 131.9931 230.7763)" style="fill:#424242;" width="23.833" height="18.538"/>
				</g>
				<g>
					
						<rect x="307.673" y="-28.231" transform="matrix(0.7071 -0.7071 0.7071 0.7071 107.0138 220.4299)" style="fill:#424242;" width="23.833" height="18.538"/>
				</g>
				<g>
					
						<rect x="282.691" y="-3.249" transform="matrix(0.7071 -0.7071 0.7071 0.7071 82.0321 210.0821)" style="fill:#424242;" width="23.833" height="18.538"/>
				</g>
				<g>
					
						<rect x="257.711" y="21.731" transform="matrix(0.7071 -0.7071 0.7071 0.7071 57.0518 199.735)" style="fill:#424242;" width="23.833" height="18.538"/>
				</g>
				<g>
					
						<rect x="232.73" y="46.712" transform="matrix(0.7071 -0.7071 0.7071 0.7071 32.0712 189.3877)" style="fill:#424242;" width="23.833" height="18.538"/>
				</g>
			</g>
			<path style="fill:#424242;" d="M420.708,433.983c0,3.702-3.001,6.704-6.704,6.704c-3.702,0-6.704-3.001-6.704-6.704
				c0-3.702,3.001-6.704,6.704-6.704C417.707,427.279,420.708,430.28,420.708,433.983z"/>
			
				<ellipse transform="matrix(0.7071 -0.7071 0.7071 0.7071 -40.6051 611.7258)" style="fill:#00E5FF;" cx="718.116" cy="354.878" rx="11.591" ry="11.591"/>
			
				<rect x="281.374" y="156.374" transform="matrix(0.7071 0.7071 -0.7071 0.7071 286.6116 -191.9417)" style="fill:#00E5FF;" width="187.252" height="187.252"/>
			<g>
				
					<rect x="420.582" y="136.159" transform="matrix(0.7071 0.7071 -0.7071 0.7071 257.8175 -273.4025)" style="fill:#424242;" width="76.705" height="76.705"/>
				<g>
					<defs>
						
							<rect id="SVGID_00000135656787971409187930000018117995215066357155_" x="420.582" y="136.159" transform="matrix(0.7071 0.7071 -0.7071 0.7071 257.8175 -273.4025)" width="76.705" height="76.705"/>
					</defs>
					<clipPath id="SVGID_00000047059173523964409250000009514362611811060105_">
						<use xlink:href="#SVGID_00000135656787971409187930000018117995215066357155_"  style="overflow:visible;"/>
					</clipPath>
					<g style="clip-path:url(#SVGID_00000047059173523964409250000009514362611811060105_);">
						<g>
							
								<ellipse transform="matrix(0.2251 -0.9743 0.9743 0.2251 185.602 582.3894)" style="fill:none;stroke:#FFFFFF;stroke-width:2;stroke-linecap:round;stroke-linejoin:round;stroke-miterlimit:10;" cx="458.934" cy="174.511" rx="48.376" ry="48.376"/>
							
								<circle style="fill:none;stroke:#FFFFFF;stroke-width:2;stroke-linecap:round;stroke-linejoin:round;stroke-miterlimit:10;" cx="458.934" cy="174.512" r="40.313"/>
							
								<ellipse transform="matrix(0.2266 -0.974 0.974 0.2266 184.9589 581.9577)" style="fill:none;stroke:#FFFFFF;stroke-width:2;stroke-linecap:round;stroke-linejoin:round;stroke-miterlimit:10;" cx="458.934" cy="174.511" rx="32.251" ry="32.251"/>
							
								<circle style="fill:none;stroke:#FFFFFF;stroke-width:2;stroke-linecap:round;stroke-linejoin:round;stroke-miterlimit:10;" cx="458.934" cy="174.512" r="24.188"/>
							
								<ellipse transform="matrix(0.1594 -0.9872 0.9872 0.1594 213.5077 599.7652)" style="fill:none;stroke:#FFFFFF;stroke-width:2;stroke-linecap:round;stroke-linejoin:round;stroke-miterlimit:10;" cx="458.934" cy="174.512" rx="16.125" ry="16.125"/>
							
								<ellipse transform="matrix(0.9704 -0.2416 0.2416 0.9704 -28.5656 116.0413)" style="fill:none;stroke:#FFFFFF;stroke-width:2;stroke-linecap:round;stroke-linejoin:round;stroke-miterlimit:10;" cx="458.934" cy="174.511" rx="8.063" ry="8.063"/>
						</g>
					</g>
				</g>
			</g>
			<g>
				<defs>
					
						<rect id="SVGID_00000112634510200327040910000016129074775409490096_" x="44.484" y="396.698" width="185.182" height="88.353"/>
				</defs>
				<clipPath id="SVGID_00000078742412527068446970000009662031596686449547_">
					<use xlink:href="#SVGID_00000112634510200327040910000016129074775409490096_"  style="overflow:visible;"/>
				</clipPath>
				<g style="clip-path:url(#SVGID_00000078742412527068446970000009662031596686449547_);">
					<g>
						<g>
							
								<polyline style="fill:none;stroke:#424242;stroke-width:2;stroke-linecap:round;stroke-linejoin:round;stroke-miterlimit:10;" points="
								37.412,495.951 92.049,441.314 146.686,495.951 							"/>
							
								<polyline style="fill:none;stroke:#424242;stroke-width:2;stroke-linecap:round;stroke-linejoin:round;stroke-miterlimit:10;" points="
								37.412,514.721 92.049,460.085 146.686,514.721 							"/>
							
								<polyline style="fill:none;stroke:#424242;stroke-width:2;stroke-linecap:round;stroke-linejoin:round;stroke-miterlimit:10;" points="
								37.412,533.492 92.049,478.855 146.686,533.492 							"/>
						</g>
						<g>
							
								<polyline style="fill:none;stroke:#424242;stroke-width:2;stroke-linecap:round;stroke-linejoin:round;stroke-miterlimit:10;" points="
								127.465,495.951 182.101,441.314 236.738,495.951 							"/>
							
								<polyline style="fill:none;stroke:#424242;stroke-width:2;stroke-linecap:round;stroke-linejoin:round;stroke-miterlimit:10;" points="
								127.465,514.721 182.101,460.085 236.738,514.721 							"/>
							
								<polyline style="fill:none;stroke:#424242;stroke-width:2;stroke-linecap:round;stroke-linejoin:round;stroke-miterlimit:10;" points="
								127.465,533.492 182.101,478.855 236.738,533.492 							"/>
						</g>
					</g>
					<g>
						
							<polyline style="fill:none;stroke:#424242;stroke-width:2;stroke-linecap:round;stroke-linejoin:round;stroke-miterlimit:10;" points="
							101.408,450.021 137.075,414.353 172.727,450.005 						"/>
						
							<polyline style="fill:none;stroke:#424242;stroke-width:2;stroke-linecap:round;stroke-linejoin:round;stroke-miterlimit:10;" points="
							110.686,459.513 137.075,433.124 163.558,459.607 						"/>
						
							<polyline style="fill:none;stroke:#424242;stroke-width:2;stroke-linecap:round;stroke-linejoin:round;stroke-miterlimit:10;" points="
							119.923,469.046 137.075,451.894 154.494,469.313 						"/>
					</g>
				</g>
			</g>
			<g>
				<path style="fill:none;stroke:#424242;stroke-width:2;stroke-linecap:round;stroke-linejoin:round;stroke-miterlimit:10;" d="
					M174.591,304.005c3.572,3.572,3.572,9.362,0,12.934c-3.572,3.572-9.362,3.572-12.934,0c-3.572-3.572-3.572-9.362,0-12.934
					C165.228,300.433,171.019,300.433,174.591,304.005z"/>
				<path style="fill:none;stroke:#424242;stroke-width:2;stroke-linecap:round;stroke-linejoin:round;stroke-miterlimit:10;" d="
					M174.591,316.939l24.571-24.57c3.572-3.572,3.572-9.362,0-12.934s-9.362-3.572-12.934,0l-24.571,24.571"/>
			</g>
			<g>
				
					<polyline style="fill:none;stroke:#424242;stroke-width:2;stroke-linecap:round;stroke-linejoin:round;stroke-miterlimit:10;" points="
					191.834,343.107 241.797,343.107 241.797,393.07 				"/>
				
					<rect x="175.263" y="359.678" style="fill:#00E5FF;stroke:#424242;stroke-width:2;stroke-linecap:round;stroke-linejoin:round;stroke-miterlimit:10;" width="49.963" height="49.963"/>
				
					<line style="fill:#FFFFFF;stroke:#424242;stroke-width:2;stroke-linecap:round;stroke-linejoin:round;stroke-miterlimit:10;" x1="175.263" y1="359.678" x2="191.834" y2="343.107"/>
				
					<line style="fill:#FFFFFF;stroke:#424242;stroke-width:2;stroke-linecap:round;stroke-linejoin:round;stroke-miterlimit:10;" x1="225.226" y1="359.678" x2="241.797" y2="343.107"/>
				
					<line style="fill:#FFFFFF;stroke:#424242;stroke-width:2;stroke-linecap:round;stroke-linejoin:round;stroke-miterlimit:10;" x1="225.226" y1="409.641" x2="241.797" y2="393.07"/>
			</g>
			<g>
				
					<polyline style="fill:none;stroke:#424242;stroke-width:2;stroke-linecap:round;stroke-linejoin:round;stroke-miterlimit:10;" points="
					535.859,60.904 565.501,60.904 565.501,90.546 				"/>
				
					<rect x="512.961" y="83.801" style="fill:#00E5FF;stroke:#424242;stroke-width:2;stroke-linecap:round;stroke-linejoin:round;stroke-miterlimit:10;" width="29.642" height="29.642"/>
				
					<line style="fill:#FFFFFF;stroke:#424242;stroke-width:2;stroke-linecap:round;stroke-linejoin:round;stroke-miterlimit:10;" x1="512.961" y1="83.801" x2="535.859" y2="60.904"/>
				
					<line style="fill:#FFFFFF;stroke:#424242;stroke-width:2;stroke-linecap:round;stroke-linejoin:round;stroke-miterlimit:10;" x1="542.604" y1="83.801" x2="565.501" y2="60.904"/>
				
					<line style="fill:#FFFFFF;stroke:#424242;stroke-width:2;stroke-linecap:round;stroke-linejoin:round;stroke-miterlimit:10;" x1="542.604" y1="113.443" x2="565.501" y2="90.546"/>
			</g>
			<g>
				
					<rect x="47.071" y="-6.79" transform="matrix(0.7071 0.7071 -0.7071 0.7071 59.2663 -56.0998)" style="fill:none;stroke:#424242;stroke-width:2;stroke-linecap:round;stroke-linejoin:round;stroke-miterlimit:10;" width="100.561" height="100.561"/>
				
					<rect x="56.504" y="2.644" transform="matrix(0.7071 -0.7071 0.7071 0.7071 -2.239 81.5761)" style="fill:none;stroke:#424242;stroke-width:2;stroke-linecap:round;stroke-linejoin:round;stroke-miterlimit:10;" width="81.694" height="81.694"/>
				
					<rect x="65.938" y="12.077" transform="matrix(0.7071 -0.7071 0.7071 0.7071 -2.239 81.5761)" style="fill:none;stroke:#424242;stroke-width:2;stroke-linecap:round;stroke-linejoin:round;stroke-miterlimit:10;" width="62.828" height="62.828"/>
				
					<rect x="75.371" y="21.51" transform="matrix(0.7071 -0.7071 0.7071 0.7071 -2.239 81.5761)" style="fill:none;stroke:#424242;stroke-width:2;stroke-linecap:round;stroke-linejoin:round;stroke-miterlimit:10;" width="43.962" height="43.962"/>
				
					<rect x="84.804" y="30.943" transform="matrix(0.7071 0.7071 -0.7071 0.7071 59.2663 -56.0998)" style="fill:none;stroke:#424242;stroke-width:2;stroke-linecap:round;stroke-linejoin:round;stroke-miterlimit:10;" width="25.095" height="25.095"/>
			</g>
			<g>
				
					<ellipse transform="matrix(0.1622 -0.9868 0.9868 0.1622 16.36 357.6972)" style="fill:#00E5FF;" cx="218.82" cy="169.215" rx="39.282" ry="39.282"/>
				<g>
					
						<circle style="fill:none;stroke:#424242;stroke-width:2;stroke-linecap:round;stroke-linejoin:round;stroke-miterlimit:10;" cx="192.559" cy="142.954" r="53"/>
					<path style="fill:none;stroke:#424242;stroke-width:2;stroke-linecap:round;stroke-linejoin:round;stroke-miterlimit:10;" d="
						M150.159,143.854c-0.311-11.715,3.846-22.711,11.519-30.881c7.673-8.17,18.676-13.319,30.881-13.319
						c23.914,0,43.3,19.386,43.3,43.3c0,23.665-19.084,42.874-42.664,43.036C169.616,186.153,150.78,167.264,150.159,143.854z"/>
					<path style="fill:none;stroke:#FFFFFF;stroke-width:2;stroke-linecap:round;stroke-linejoin:round;" d="M160.759,144.754
						c-0.623-8.815,1.759-17.537,7.514-24.286c5.755-6.749,14.51-11.114,24.286-11.114c18.557,0,33.6,15.043,33.6,33.6
						c0,18.06-14.439,32.747-32.327,33.073C175.943,176.352,161.997,162.28,160.759,144.754z"/>
					<path style="fill:none;stroke:#FFFFFF;stroke-width:2;stroke-linecap:round;stroke-linejoin:round;" d="M171.359,145.654
						c-0.942-5.967-0.327-12.363,3.509-17.691c3.836-5.328,10.345-8.909,17.691-8.909c13.2,0,23.9,10.7,23.9,23.9
						c0,12.454-9.794,22.621-21.991,23.109C182.271,166.552,173.188,157.243,171.359,145.654z"/>
					<path style="fill:none;stroke:#FFFFFF;stroke-width:2;stroke-linecap:round;stroke-linejoin:round;" d="M180.459,147.454
						c-1.209-2.499-0.913-8.089,1.005-11.995c1.918-3.906,6.18-6.705,11.095-6.705c7.842,0,14.2,6.358,14.2,14.2
						c0,6.848-5.149,12.494-11.654,13.146C188.599,156.751,182.227,151.11,180.459,147.454z"/>
				</g>
			</g>
			
				<rect x="573.798" y="156.082" transform="matrix(0.7071 0.7071 -0.7071 0.7071 288.4276 -364.1632)" style="fill:#00E5FF;" width="20" height="20"/>
			<g>
				<defs>
					
						<rect id="SVGID_00000072278139488668299980000005564185807470572959_" x="318.154" y="282.746" transform="matrix(0.7071 0.7071 -0.7071 0.7071 349.9627 -165.7009)" width="113.692" height="113.692"/>
				</defs>
				<clipPath id="SVGID_00000137835109758500691650000009329598217930217611_">
					<use xlink:href="#SVGID_00000072278139488668299980000005564185807470572959_"  style="overflow:visible;"/>
				</clipPath>
				<g style="clip-path:url(#SVGID_00000137835109758500691650000009329598217930217611_);">
					<g>
						
							<rect x="379.387" y="263.587" transform="matrix(-1.836970e-16 1 -1 -1.836970e-16 714.592 -115.8003)" style="fill:none;stroke:#FFFFFF;stroke-width:5;stroke-linecap:round;stroke-linejoin:round;stroke-miterlimit:10;" width="71.617" height="71.617"/>
						
							<rect x="388.127" y="272.327" style="fill:none;stroke:#FFFFFF;stroke-width:5;stroke-linecap:round;stroke-linejoin:round;stroke-miterlimit:10;" width="54.137" height="54.138"/>
						
							<rect x="396.867" y="281.067" style="fill:none;stroke:#FFFFFF;stroke-width:5;stroke-linecap:round;stroke-linejoin:round;stroke-miterlimit:10;" width="36.658" height="36.658"/>
						
							<rect x="405.607" y="289.807" transform="matrix(-1.836970e-16 1 -1 -1.836970e-16 714.592 -115.8002)" style="fill:none;stroke:#FFFFFF;stroke-width:5;stroke-linecap:round;stroke-linejoin:round;stroke-miterlimit:10;" width="19.178" height="19.178"/>
					</g>
					<g>
						
							<rect x="298.995" y="263.587" transform="matrix(-1.836970e-16 1 -1 -1.836970e-16 634.1997 -35.408)" style="fill:none;stroke:#FFFFFF;stroke-width:5;stroke-linecap:round;stroke-linejoin:round;stroke-miterlimit:10;" width="71.617" height="71.617"/>
						
							<rect x="307.735" y="272.327" style="fill:none;stroke:#FFFFFF;stroke-width:5;stroke-linecap:round;stroke-linejoin:round;stroke-miterlimit:10;" width="54.138" height="54.138"/>
						
							<rect x="316.475" y="281.067" style="fill:none;stroke:#FFFFFF;stroke-width:5;stroke-linecap:round;stroke-linejoin:round;stroke-miterlimit:10;" width="36.658" height="36.658"/>
						
							<rect x="325.215" y="289.807" transform="matrix(-1.836970e-16 1 -1 -1.836970e-16 634.1997 -35.4079)" style="fill:none;stroke:#FFFFFF;stroke-width:5;stroke-linecap:round;stroke-linejoin:round;stroke-miterlimit:10;" width="19.178" height="19.178"/>
					</g>
					<g>
						
							<rect x="298.995" y="343.979" transform="matrix(-1.836970e-16 1 -1 -1.836970e-16 714.592 44.9843)" style="fill:none;stroke:#FFFFFF;stroke-width:5;stroke-linecap:round;stroke-linejoin:round;stroke-miterlimit:10;" width="71.617" height="71.617"/>
						
							<rect x="307.735" y="352.719" style="fill:none;stroke:#FFFFFF;stroke-width:5;stroke-linecap:round;stroke-linejoin:round;stroke-miterlimit:10;" width="54.138" height="54.138"/>
						
							<rect x="316.475" y="361.459" style="fill:none;stroke:#FFFFFF;stroke-width:5;stroke-linecap:round;stroke-linejoin:round;stroke-miterlimit:10;" width="36.658" height="36.658"/>
						
							<rect x="325.215" y="370.199" transform="matrix(-1.836970e-16 1 -1 -1.836970e-16 714.592 44.9844)" style="fill:none;stroke:#FFFFFF;stroke-width:5;stroke-linecap:round;stroke-linejoin:round;stroke-miterlimit:10;" width="19.178" height="19.178"/>
					</g>
					<g>
						
							<rect x="379.387" y="343.979" transform="matrix(-1.836970e-16 1 -1 -1.836970e-16 794.9843 -35.408)" style="fill:none;stroke:#FFFFFF;stroke-width:5;stroke-linecap:round;stroke-linejoin:round;stroke-miterlimit:10;" width="71.617" height="71.617"/>
						
							<rect x="388.127" y="352.719" style="fill:none;stroke:#FFFFFF;stroke-width:5;stroke-linecap:round;stroke-linejoin:round;stroke-miterlimit:10;" width="54.137" height="54.138"/>
						
							<rect x="396.867" y="361.459" style="fill:none;stroke:#FFFFFF;stroke-width:5;stroke-linecap:round;stroke-linejoin:round;stroke-miterlimit:10;" width="36.658" height="36.658"/>
						
							<rect x="405.607" y="370.199" transform="matrix(-1.836970e-16 1 -1 -1.836970e-16 794.9843 -35.4079)" style="fill:none;stroke:#FFFFFF;stroke-width:5;stroke-linecap:round;stroke-linejoin:round;stroke-miterlimit:10;" width="19.178" height="19.178"/>
					</g>
				</g>
			</g>
			
				<rect x="308.883" y="273.475" transform="matrix(0.7071 0.7071 -0.7071 0.7071 349.9627 -165.7009)" style="fill:none;stroke:#424242;stroke-width:2;stroke-linecap:round;stroke-linejoin:round;stroke-miterlimit:10;" width="132.234" height="132.234"/>
			<g>
				<g>
					
						<rect x="659.073" y="91.009" transform="matrix(0.7071 0.7071 -0.7071 0.7071 287.3521 -451.7896)" style="fill:none;stroke:#424242;stroke-width:2;stroke-linecap:round;stroke-linejoin:round;stroke-miterlimit:10;" width="59.922" height="59.922"/>
					
						<rect x="659.073" y="105.566" transform="matrix(0.7071 0.7071 -0.7071 0.7071 297.6452 -447.526)" style="fill:none;stroke:#424242;stroke-width:2;stroke-linecap:round;stroke-linejoin:round;stroke-miterlimit:10;" width="59.922" height="59.922"/>
					
						<rect x="659.073" y="120.122" transform="matrix(0.7071 0.7071 -0.7071 0.7071 307.9383 -443.2625)" style="fill:none;stroke:#424242;stroke-width:2;stroke-linecap:round;stroke-linejoin:round;stroke-miterlimit:10;" width="59.922" height="59.922"/>
				</g>
				
					<rect x="678.074" y="124.566" transform="matrix(0.7071 0.7071 -0.7071 0.7071 297.6452 -447.526)" style="fill:#00E5FF;" width="21.92" height="21.92"/>
			</g>
			<g>
				
					<rect x="92.211" y="215.706" transform="matrix(-0.7071 -0.7071 0.7071 -0.7071 17.0578 462.8179)" style="fill:#00E5FF;" width="24.341" height="24.341"/>
				
					<rect x="67.97" y="239.947" transform="matrix(-0.7071 -0.7071 0.7071 -0.7071 -41.4666 487.0595)" style="fill:#00E5FF;" width="24.341" height="24.341"/>
				
					<rect x="67.312" y="190.807" transform="matrix(-0.7071 -0.7071 0.7071 -0.7071 -7.8413 402.7061)" style="fill:#00E5FF;" width="24.341" height="24.341"/>
				
					<rect x="43.07" y="215.048" transform="matrix(-0.7071 -0.7071 0.7071 -0.7071 -66.3658 426.9477)" style="fill:#00E5FF;" width="24.341" height="24.341"/>
				<g>
					
						<rect x="92.211" y="208.347" transform="matrix(-0.7071 -0.7071 0.7071 -0.7071 22.2619 450.2558)" style="fill:none;stroke:#262626;stroke-width:2;stroke-miterlimit:10;" width="24.341" height="24.341"/>
					
						<rect x="67.97" y="232.589" transform="matrix(-0.7071 -0.7071 0.7071 -0.7071 -36.2625 474.4975)" style="fill:none;stroke:#262626;stroke-width:2;stroke-miterlimit:10;" width="24.341" height="24.341"/>
					
						<rect x="67.312" y="183.448" transform="matrix(-0.7071 -0.7071 0.7071 -0.7071 -2.6384 390.1435)" style="fill:none;stroke:#262626;stroke-width:2;stroke-miterlimit:10;" width="24.341" height="24.341"/>
					
						<rect x="43.07" y="207.689" transform="matrix(-0.7071 -0.7071 0.7071 -0.7071 -61.1628 414.385)" style="fill:none;stroke:#262626;stroke-width:2;stroke-miterlimit:10;" width="24.341" height="24.341"/>
				</g>
			</g>
			<g>
				
					<circle style="fill:none;stroke:#424242;stroke-width:2;stroke-linecap:round;stroke-linejoin:round;stroke-miterlimit:10;" cx="513.735" cy="22.056" r="5.213"/>
				
					<circle style="fill:none;stroke:#424242;stroke-width:2;stroke-linecap:round;stroke-linejoin:round;stroke-miterlimit:10;" cx="500.423" cy="35.369" r="5.213"/>
				
					<circle style="fill:none;stroke:#424242;stroke-width:2;stroke-linecap:round;stroke-linejoin:round;stroke-miterlimit:10;" cx="487.111" cy="48.681" r="5.213"/>
				<path style="fill:none;stroke:#424242;stroke-width:2;stroke-linecap:round;stroke-linejoin:round;stroke-miterlimit:10;" d="
					M477.485,65.679c-2.036,2.036-5.336,2.036-7.372,0c-2.036-2.036-2.036-5.336,0-7.372c2.036-2.036,5.336-2.036,7.372,0
					C479.521,60.342,479.521,63.643,477.485,65.679z"/>
				
					<circle style="fill:none;stroke:#424242;stroke-width:2;stroke-linecap:round;stroke-linejoin:round;stroke-miterlimit:10;" cx="460.487" cy="75.305" r="5.213"/>
				
					<circle style="fill:none;stroke:#424242;stroke-width:2;stroke-linecap:round;stroke-linejoin:round;stroke-miterlimit:10;" cx="447.175" cy="88.617" r="5.213"/>
			</g>
			<path style="fill:none;stroke:#424242;stroke-width:2;stroke-linecap:round;stroke-linejoin:round;stroke-miterlimit:10;" d="
				M253.337,522.438L253.337,522.438c2.499,2.499,6.55,2.499,9.049,0l73.492-73.492c2.499-2.499,2.499-6.55,0-9.049l0,0
				c-2.499-2.499-6.55-2.499-9.049,0l-73.492,73.492C250.838,515.888,250.838,519.939,253.337,522.438z"/>
			<g>
				<g>
					<g>
						
							<line style="fill:none;stroke:#424242;stroke-width:3;stroke-linecap:round;stroke-linejoin:round;" x1="715.725" y1="-10" x2="715.725" y2="-10"/>
						
							<line style="fill:none;stroke:#424242;stroke-width:3;stroke-linecap:round;stroke-linejoin:round;stroke-dasharray:0,8.9958;" x1="709.364" y1="-3.639" x2="629.852" y2="75.873"/>
						
							<line style="fill:none;stroke:#424242;stroke-width:3;stroke-linecap:round;stroke-linejoin:round;" x1="626.671" y1="79.054" x2="626.671" y2="79.054"/>
					</g>
				</g>
				<g>
					<g>
						
							<line style="fill:none;stroke:#424242;stroke-width:3;stroke-linecap:round;stroke-linejoin:round;" x1="694.179" y1="-8.427" x2="694.179" y2="-8.427"/>
						
							<line style="fill:none;stroke:#424242;stroke-width:3;stroke-linecap:round;stroke-linejoin:round;stroke-dasharray:0,9.1825;" x1="687.686" y1="-1.934" x2="587.044" y2="98.708"/>
						
							<line style="fill:none;stroke:#424242;stroke-width:3;stroke-linecap:round;stroke-linejoin:round;" x1="583.798" y1="101.954" x2="583.798" y2="101.954"/>
					</g>
				</g>
				<g>
					<g>
						
							<line style="fill:none;stroke:#424242;stroke-width:3;stroke-linecap:round;stroke-linejoin:round;" x1="695.752" y1="-29.973" x2="695.752" y2="-29.973"/>
						
							<line style="fill:none;stroke:#424242;stroke-width:3;stroke-linecap:round;stroke-linejoin:round;stroke-dasharray:0,8.9958;" x1="689.391" y1="-23.612" x2="609.879" y2="55.9"/>
						
							<line style="fill:none;stroke:#424242;stroke-width:3;stroke-linecap:round;stroke-linejoin:round;" x1="606.698" y1="59.081" x2="606.698" y2="59.081"/>
					</g>
				</g>
			</g>
			<g>
				<g>
					<g>
						
							<line style="fill:none;stroke:#424242;stroke-width:3;stroke-linecap:round;stroke-linejoin:round;" x1="49.893" y1="144.61" x2="49.893" y2="144.61"/>
						
							<line style="fill:none;stroke:#424242;stroke-width:3;stroke-linecap:round;stroke-linejoin:round;stroke-dasharray:0,9.1825;" x1="43.4" y1="151.103" x2="-57.242" y2="251.745"/>
						
							<line style="fill:none;stroke:#424242;stroke-width:3;stroke-linecap:round;stroke-linejoin:round;" x1="-60.488" y1="254.991" x2="-60.488" y2="254.991"/>
					</g>
				</g>
				<g>
					<g>
						
							<line style="fill:none;stroke:#424242;stroke-width:3;stroke-linecap:round;stroke-linejoin:round;" x1="51.466" y1="123.064" x2="51.466" y2="123.064"/>
						
							<line style="fill:none;stroke:#424242;stroke-width:3;stroke-linecap:round;stroke-linejoin:round;stroke-dasharray:0,8.9958;" x1="45.105" y1="129.425" x2="-34.408" y2="208.938"/>
						
							<line style="fill:none;stroke:#424242;stroke-width:3;stroke-linecap:round;stroke-linejoin:round;" x1="-37.588" y1="212.118" x2="-37.588" y2="212.118"/>
					</g>
				</g>
			</g>
			<g>
				<g>
					<g>
						
							<line style="fill:none;stroke:#424242;stroke-width:3;stroke-linecap:round;stroke-linejoin:round;" x1="500.382" y1="426.092" x2="500.382" y2="426.092"/>
						
							<line style="fill:none;stroke:#424242;stroke-width:3;stroke-linecap:round;stroke-linejoin:round;stroke-dasharray:0,9.2031;" x1="493.875" y1="432.599" x2="373.484" y2="552.99"/>
						
							<line style="fill:none;stroke:#424242;stroke-width:3;stroke-linecap:round;stroke-linejoin:round;" x1="370.23" y1="556.244" x2="370.23" y2="556.244"/>
					</g>
				</g>
				<g>
					<g>
						
							<line style="fill:none;stroke:#424242;stroke-width:3;stroke-linecap:round;stroke-linejoin:round;" x1="447.619" y1="458.882" x2="447.619" y2="458.882"/>
						
							<line style="fill:none;stroke:#424242;stroke-width:3;stroke-linecap:round;stroke-linejoin:round;stroke-dasharray:0,8.562;" x1="441.565" y1="464.936" x2="396.158" y2="510.343"/>
						
							<line style="fill:none;stroke:#424242;stroke-width:3;stroke-linecap:round;stroke-linejoin:round;" x1="393.131" y1="513.37" x2="393.131" y2="513.37"/>
					</g>
				</g>
			</g>
			<g>
				
					<rect x="658.976" y="446.68" transform="matrix(6.123234e-17 -1 1 6.123234e-17 212.2958 1135.7145)" style="fill:#00E5FF;" width="30.058" height="30.058"/>
				
					<rect x="674.681" y="416.044" transform="matrix(6.123234e-17 -1 1 6.123234e-17 258.6364 1135.7145)" style="fill:none;stroke:#424242;stroke-width:2;stroke-linecap:round;stroke-linejoin:round;stroke-miterlimit:10;" width="44.99" height="44.99"/>
			</g>
			<g>
				
					<rect x="395.987" y="35.091" transform="matrix(-0.7071 -0.7071 0.7071 -0.7071 662.4923 367.2233)" style="fill:none;stroke:#424242;stroke-width:11;stroke-miterlimit:10;" width="22.627" height="22.627"/>
			</g>
		</g>
	</g>
</g>
</svg>
