<?xml version="1.0" encoding="utf-8"?>
<!-- Generator: Adobe Illustrator 27.5.0, SVG Export Plug-In . SVG Version: 6.00 Build 0)  -->
<svg version="1.1" xmlns="http://www.w3.org/2000/svg" xmlns:xlink="http://www.w3.org/1999/xlink" x="0px" y="0px"
	 viewBox="0 0 750 500" style="enable-background:new 0 0 750 500;" xml:space="preserve">
<g id="BACKGROUND">
	<rect style="fill:#FFFFFF;" width="750" height="500"/>
</g>
<g id="OBJECTS">
	<g>
		<defs>
			<rect id="SVGID_1_" width="750" height="500"/>
		</defs>
		<clipPath id="SVGID_00000054987651415706303750000013596369586728218528_">
			<use xlink:href="#SVGID_1_"  style="overflow:visible;"/>
		</clipPath>
		<g style="clip-path:url(#SVGID_00000054987651415706303750000013596369586728218528_);">
			<g>
				<g>
					<polygon style="fill:#222222;stroke:#222222;stroke-miterlimit:10;" points="71.034,86.311 -107.085,86.311 -111.795,91.021 
						66.324,91.021 					"/>
					<polygon style="fill:#222222;stroke:#222222;stroke-miterlimit:10;" points="76.495,96.328 -117.102,96.328 -121.812,101.038 
						78.027,101.038 					"/>
					<polygon style="fill:#222222;stroke:#222222;stroke-miterlimit:10;" points="106.328,106.345 -127.119,106.345 
						-131.829,111.055 101.618,111.055 					"/>
					<polygon style="fill:#222222;stroke:#222222;stroke-miterlimit:10;" points="98.43,116.363 -137.137,116.363 -141.846,121.073 
						93.72,121.073 					"/>
				</g>
				<g>
					
						<rect x="75.758" y="65.026" transform="matrix(0.7071 0.7071 -0.7071 0.7071 82.0812 -40.2858)" style="fill:none;stroke:#222222;stroke-linecap:round;stroke-linejoin:round;stroke-miterlimit:10;" width="27.824" height="27.824"/>
					<polygon style="fill:#ABF2C3;stroke:#222222;stroke-linecap:round;stroke-linejoin:round;stroke-miterlimit:10;" points="
						109.345,78.938 124.985,78.938 97.525,51.477 89.67,59.263 					"/>
					<polygon style="fill:#ABF2C3;stroke:#222222;stroke-linecap:round;stroke-linejoin:round;stroke-miterlimit:10;" points="
						69.995,78.938 54.354,78.938 81.815,106.398 89.67,98.613 					"/>
					<polygon style="fill:#A8F8FF;stroke:#222222;stroke-linecap:round;stroke-linejoin:round;stroke-miterlimit:10;" points="
						54.354,78.938 97.857,35.435 140.846,78.424 97.707,121.563 81.996,122.002 124.985,79.013 97.525,51.477 69.995,78.938 					
						"/>
					<polygon style="fill:#4BFFC6;stroke:#222222;stroke-linecap:round;stroke-linejoin:round;stroke-miterlimit:10;" points="
						124.985,79.013 81.996,122.002 38.493,78.499 81.648,35.343 97.857,35.435 54.354,78.938 81.815,106.398 109.345,78.938 					
						"/>
				</g>
				<polygon style="fill:#ABF2C3;stroke:#222222;stroke-linecap:round;stroke-linejoin:round;stroke-miterlimit:10;" points="
					613.144,72.865 582.881,103.571 569.282,89.972 576.248,82.564 566.549,72.865 549.061,90.353 581.885,123.177 622.671,82.392 
									"/>
				<polygon style="fill:#ABF2C3;stroke:#222222;stroke-linecap:round;stroke-linejoin:round;stroke-miterlimit:10;" points="
					585.781,73.032 576.081,63.332 615.922,23.492 648.746,56.316 632.197,72.865 622.671,63.339 630.143,55.723 616.545,42.125 
									"/>
				<polygon style="fill:#4BFFC6;stroke:#222222;stroke-linecap:round;stroke-linejoin:round;stroke-miterlimit:10;" points="
					609.072,49.74 599.546,59.266 631.384,91.139 617.619,104.904 608.837,96.225 599.373,105.689 616.806,123.123 649.63,90.298 
									"/>
				<polygon style="fill:#4BFFC6;stroke:#222222;stroke-linecap:round;stroke-linejoin:round;stroke-miterlimit:10;" points="
					589.846,96.163 599.373,86.636 567.973,55.147 581.744,41.376 589.846,49.567 599.373,40.041 582.112,22.78 549.288,55.604 				
					"/>
				<path style="fill:#A8F8FF;stroke:#222222;stroke-miterlimit:10;" d="M183.124,70.049c0.09,0.052,0.18,0.105,0.18,0.105
					s20.473,11.88,22.284,12.931c-1.811,1.049-22.284,12.929-22.284,12.929s-0.09,0.052-0.181,0.105
					c-0.09-0.052-0.18-0.105-0.18-0.105s-20.473-11.88-22.284-12.929c1.811-1.051,22.284-12.931,22.284-12.931
					S183.034,70.102,183.124,70.049z"/>
				<path style="fill:#4BFFC6;stroke:#222222;stroke-linecap:round;stroke-linejoin:round;stroke-miterlimit:10;" d="
					M160.548,109.056c0.09,0.052,0.181,0.104,0.181,0.104s20.525,11.79,22.34,12.833c0.003-2.093,0.055-25.763,0.055-25.763
					s0-0.104,0-0.209c-0.09-0.052-0.181-0.104-0.181-0.104s-20.525-11.79-22.339-12.834c-0.005,2.093-0.056,25.764-0.056,25.764
					S160.548,108.952,160.548,109.056z"/>
				<path style="fill:#ABF2C3;stroke:#222222;stroke-linecap:round;stroke-linejoin:round;stroke-miterlimit:10;" d="
					M205.701,109.056c-0.09,0.052-0.181,0.104-0.181,0.104s-20.525,11.79-22.34,12.833c-0.003-2.093-0.055-25.763-0.055-25.763
					s0-0.104-0.001-0.209c0.09-0.052,0.181-0.104,0.181-0.104s20.525-11.79,22.339-12.834c0.005,2.093,0.056,25.764,0.056,25.764
					S205.7,108.952,205.701,109.056z"/>
				<circle style="fill:#A8F8FF;stroke:#222222;stroke-miterlimit:10;" cx="599.22" cy="73.289" r="5.537"/>
				<g>
					<polygon style="fill:#ABF2C3;stroke:#222222;stroke-linecap:round;stroke-linejoin:round;stroke-miterlimit:10;" points="
						140.719,127.79 128.458,140.23 122.949,134.721 125.771,131.72 121.842,127.79 114.757,134.875 128.055,148.173 
						144.579,131.65 					"/>
					<polygon style="fill:#ABF2C3;stroke:#222222;stroke-linecap:round;stroke-linejoin:round;stroke-miterlimit:10;" points="
						129.633,127.858 125.704,123.928 141.845,107.787 155.143,121.086 148.438,127.79 144.579,123.931 147.606,120.845 
						142.097,115.336 					"/>
					<polygon style="fill:#A8F8FF;stroke:#222222;stroke-miterlimit:10;" points="139.07,118.421 135.21,122.281 148.109,135.193 
						142.532,140.77 138.974,137.254 135.14,141.088 142.203,148.151 155.501,134.853 					"/>
					<polygon style="fill:#A8F8FF;stroke:#222222;stroke-miterlimit:10;" points="131.281,137.229 135.14,133.369 122.419,120.612 
						127.998,115.033 131.281,118.352 135.14,114.492 128.147,107.499 114.849,120.797 					"/>
					<path style="fill:#A8F8FF;stroke:#222222;stroke-miterlimit:10;" d="M137.321,127.962c0,1.239-1.004,2.243-2.243,2.243
						c-1.239,0-2.243-1.004-2.243-2.243c0-1.239,1.004-2.243,2.243-2.243C136.317,125.719,137.321,126.723,137.321,127.962z"/>
				</g>
				<path style="fill:#222222;stroke:#222222;stroke-miterlimit:10;" d="M229.393,9.308c0,27.705-22.459,50.164-50.164,50.164
					c-27.705,0-50.164-22.459-50.164-50.164c0-27.705,22.459-50.164,50.164-50.164C206.934-40.856,229.393-18.397,229.393,9.308z
					 M179.328-21.935c-17.774,0-32.183,14.409-32.183,32.183s14.409,32.183,32.183,32.183s32.183-14.409,32.183-32.183
					S197.102-21.935,179.328-21.935z"/>
				<g>
					<path style="fill:#222222;stroke:#222222;stroke-miterlimit:10;" d="M650.819,153.48c-0.004-0.238-0.018-0.473-0.018-0.712
						c0-22.093,17.91-40.002,40.002-40.002c22.093,0,40.002,17.91,40.002,40.002c0,0.239-0.014,0.474-0.018,0.712h10.161
						c0.003-0.238,0.018-0.473,0.018-0.712c0-27.705-22.459-50.164-50.164-50.164c-27.705,0-50.164,22.459-50.164,50.164
						c0,0.239,0.015,0.474,0.018,0.712H650.819z"/>
					<path style="fill:#222222;stroke:#222222;stroke-miterlimit:10;" d="M669.118,153.48c-0.011-0.276-0.021-0.553-0.021-0.831
						c0-11.988,9.719-21.707,21.707-21.707c11.989,0,21.707,9.719,21.707,21.707c0,0.279-0.011,0.555-0.021,0.831h8.529
						c0.008-0.277,0.021-0.553,0.021-0.831c0-16.699-13.537-30.235-30.236-30.235c-16.699,0-30.235,13.537-30.235,30.235
						c0,0.279,0.013,0.554,0.021,0.831H669.118z"/>
					<path style="fill:#222222;stroke:#222222;stroke-miterlimit:10;" d="M684.468,153.48c-0.035-0.273-0.06-0.549-0.06-0.831
						c0-3.532,2.864-6.396,6.396-6.396c3.532,0,6.396,2.864,6.396,6.396c0,0.283-0.025,0.559-0.06,0.831h5.87
						c0.019-0.276,0.042-0.551,0.042-0.831c0-6.764-5.483-12.247-12.247-12.247c-6.764,0-12.247,5.483-12.247,12.247
						c0,0.281,0.023,0.555,0.042,0.831H684.468z"/>
				</g>
				<polygon style="fill:#CEFBFF;stroke:#222222;stroke-miterlimit:10;" points="235.573,51.754 239.595,61.287 249.555,58.487 
					244.609,67.575 253.008,73.617 242.819,75.416 243.333,85.75 235.573,78.906 227.814,85.75 228.327,75.416 218.138,73.617 
					226.537,67.575 221.591,58.487 231.552,61.287 				"/>
				<polygon style="fill:#7AD3D0;stroke:#222222;stroke-miterlimit:10;" points="527.978,9.308 531.999,18.841 541.96,16.041 
					537.014,25.129 545.413,31.171 535.224,32.97 535.737,43.304 527.978,36.459 520.219,43.304 520.732,32.97 510.543,31.171 
					518.942,25.129 513.996,16.041 523.957,18.841 				"/>
				<path style="fill:#4BFFC6;stroke:#222222;stroke-linecap:round;stroke-linejoin:round;stroke-miterlimit:10;" d="M742.77,5.5
					l11.294,26.773l27.974-7.863l-13.891,25.523l23.589,16.969l-28.615,5.053l1.441,29.022L742.77,81.756l-21.792,19.222
					l1.441-29.022l-28.615-5.053l23.589-16.969L703.502,24.41l27.974,7.863L742.77,5.5z M736.095,42.195l-16.533-4.647l8.209,15.084
					l-13.941,10.028l16.912,2.986l-0.852,17.152l12.879-11.36l12.879,11.36l-0.852-17.152l16.912-2.986l-13.941-10.028l8.209-15.084
					l-16.533,4.647l-6.675-15.823L736.095,42.195z"/>
				<g>
					
						<rect x="358.008" y="88.493" transform="matrix(0.7071 -0.7071 0.7071 0.7071 32.6164 302.4072)" style="fill:#4BFFC6;stroke:#222222;stroke-linecap:round;stroke-linejoin:round;stroke-miterlimit:10;" width="46.678" height="46.678"/>
					
						<rect x="341.149" y="88.493" transform="matrix(0.7071 -0.7071 0.7071 0.7071 27.6788 290.4865)" style="fill:none;stroke:#222222;stroke-miterlimit:10;" width="46.678" height="46.678"/>
					
						<rect x="324.29" y="88.493" transform="matrix(0.7071 -0.7071 0.7071 0.7071 22.7406 278.5648)" style="fill:none;stroke:#222222;stroke-miterlimit:10;" width="46.678" height="46.678"/>
					
						<rect x="307.43" y="88.493" transform="matrix(0.7071 -0.7071 0.7071 0.7071 17.8029 266.644)" style="fill:#A8F8FF;stroke:#222222;stroke-miterlimit:10;" width="46.678" height="46.678"/>
					<line style="fill:none;stroke:#222222;stroke-miterlimit:10;" x1="330.769" y1="78.826" x2="381.347" y2="78.826"/>
					<line style="fill:none;stroke:#222222;stroke-miterlimit:10;" x1="330.769" y1="144.838" x2="381.347" y2="144.838"/>
				</g>
				<g>
					<polygon style="fill:#222222;stroke:#222222;stroke-miterlimit:10;" points="411.641,-15.951 242.234,153.455 235.573,153.455 
						404.98,-15.951 					"/>
					<polygon style="fill:#4BFFC6;stroke:#222222;stroke-linecap:round;stroke-linejoin:round;stroke-miterlimit:10;" points="
						397.474,-15.951 228.068,153.455 221.407,153.455 390.813,-15.951 					"/>
					<polygon style="fill:#222222;stroke:#222222;stroke-miterlimit:10;" points="383.308,-15.951 213.901,153.455 207.24,153.455 
						376.647,-15.951 					"/>
					<polygon style="fill:#4BFFC6;stroke:#222222;stroke-linecap:round;stroke-linejoin:round;stroke-miterlimit:10;" points="
						369.141,-15.951 199.735,153.455 193.074,153.455 362.48,-15.951 					"/>
				</g>
				<g>
					<path style="fill:#222222;stroke:#222222;stroke-miterlimit:10;" d="M486.451-61.797v80.472h4.71l0-80.472
						C489.591-61.797,488.021-61.797,486.451-61.797z"/>
					<path style="fill:#222222;stroke:#222222;stroke-miterlimit:10;" d="M476.434-61.797v80.472c1.57,0,3.14,0,4.71,0v-80.472
						C479.574-61.797,478.003-61.797,476.434-61.797z"/>
					<rect x="466.416" y="-61.797" style="fill:#222222;stroke:#222222;stroke-miterlimit:10;" width="4.71" height="80.472"/>
					<polygon style="fill:#222222;stroke:#222222;stroke-miterlimit:10;" points="456.499,-61.797 456.399,-61.697 456.399,18.675 
						461.109,18.675 461.109,-61.797 					"/>
				</g>
				<polygon style="fill:#4BFFC6;stroke:#222222;stroke-linecap:round;stroke-linejoin:round;stroke-miterlimit:10;" points="
					449.637,16.526 473.275,40.164 496.912,16.526 496.286,15.901 450.263,15.901 				"/>
				<polygon style="fill:#4BFFC6;stroke:#222222;stroke-linecap:round;stroke-linejoin:round;stroke-miterlimit:10;" points="
					30.446,71.269 54.354,47.006 7.434,47.006 				"/>
				<g>
					
						<rect x="413.26" y="37.466" transform="matrix(0.7071 0.7071 -0.7071 0.7071 169.8884 -290.5052)" style="fill:#7AD3D0;stroke:#222222;stroke-miterlimit:10;" width="44.711" height="44.711"/>
					<g>
						
							<line style="fill:#4BFFC6;stroke:#222222;stroke-linecap:round;stroke-linejoin:round;stroke-miterlimit:10;" x1="435.615" y1="91.436" x2="435.615" y2="28.206"/>
						
							<line style="fill:#4BFFC6;stroke:#222222;stroke-linecap:round;stroke-linejoin:round;stroke-miterlimit:10;" x1="467.23" y1="59.821" x2="404" y2="59.821"/>
						
							<line style="fill:#4BFFC6;stroke:#222222;stroke-linecap:round;stroke-linejoin:round;stroke-miterlimit:10;" x1="419.807" y1="44.013" x2="451.423" y2="75.629"/>
						
							<line style="fill:#4BFFC6;stroke:#222222;stroke-linecap:round;stroke-linejoin:round;stroke-miterlimit:10;" x1="451.423" y1="44.013" x2="419.807" y2="75.629"/>
					</g>
				</g>
				<g>
					
						<rect x="250.049" y="-23.053" transform="matrix(0.7071 0.7071 -0.7071 0.7071 79.2917 -192.8234)" style="fill:#4BFFC6;stroke:#222222;stroke-linecap:round;stroke-linejoin:round;stroke-miterlimit:10;" width="44.711" height="44.711"/>
					<g>
						
							<line style="fill:#4BFFC6;stroke:#222222;stroke-linecap:round;stroke-linejoin:round;stroke-miterlimit:10;" x1="272.404" y1="30.917" x2="272.404" y2="-32.313"/>
						
							<line style="fill:#4BFFC6;stroke:#222222;stroke-linecap:round;stroke-linejoin:round;stroke-miterlimit:10;" x1="304.019" y1="-0.698" x2="240.789" y2="-0.698"/>
						
							<line style="fill:#4BFFC6;stroke:#222222;stroke-linecap:round;stroke-linejoin:round;stroke-miterlimit:10;" x1="256.597" y1="-16.506" x2="288.212" y2="15.109"/>
						
							<line style="fill:#4BFFC6;stroke:#222222;stroke-linecap:round;stroke-linejoin:round;stroke-miterlimit:10;" x1="288.212" y1="-16.506" x2="256.597" y2="15.109"/>
					</g>
				</g>
				<polygon style="fill:#222222;stroke:#222222;stroke-miterlimit:10;" points="401.606,153.808 465.048,153.808 433.327,122.087 
									"/>
				<path style="fill:#CEFBFF;stroke:#222222;stroke-miterlimit:10;" d="M445.758,143.939c-6.688-6.688-17.531-6.688-24.219,0
					c-2.772,2.772-4.377,6.261-4.851,9.869h33.921C450.136,150.199,448.531,146.711,445.758,143.939z"/>
				<g>
					<g>
						<polygon style="fill:#4BFFC6;stroke:#222222;stroke-linecap:round;stroke-linejoin:round;stroke-miterlimit:10;" points="
							535.096,108.74 485.585,108.74 510.341,133.495 						"/>
						<polygon style="fill:#4BFFC6;stroke:#222222;stroke-linecap:round;stroke-linejoin:round;stroke-miterlimit:10;" points="
							535.096,102.486 485.585,102.486 510.341,127.242 						"/>
						<polygon style="fill:#4BFFC6;stroke:#222222;stroke-linecap:round;stroke-linejoin:round;stroke-miterlimit:10;" points="
							535.096,96.233 485.585,96.233 510.341,120.988 						"/>
						<polygon style="fill:#4BFFC6;stroke:#222222;stroke-linecap:round;stroke-linejoin:round;stroke-miterlimit:10;" points="
							535.096,89.979 485.585,89.979 510.341,114.734 						"/>
					</g>
					<circle style="fill:#A8F8FF;stroke:#222222;stroke-miterlimit:10;" cx="510.036" cy="88.284" r="13.365"/>
					<path style="fill:#CEFBFF;stroke:#222222;stroke-miterlimit:10;" d="M500.639,97.681c5.219,5.219,13.681,5.219,18.901,0
						c2.164-2.163,3.416-4.886,3.786-7.702h-26.472C497.223,92.795,498.476,95.518,500.639,97.681z"/>
				</g>
				<g>
					<circle style="fill:#A8F8FF;stroke:#222222;stroke-miterlimit:10;" cx="281.685" cy="47.631" r="2.358"/>
					<circle style="fill:#A8F8FF;stroke:#222222;stroke-miterlimit:10;" cx="290.219" cy="39.098" r="2.358"/>
					<circle style="fill:#A8F8FF;stroke:#222222;stroke-miterlimit:10;" cx="298.753" cy="30.564" r="2.358"/>
					<path style="fill:#A8F8FF;stroke:#222222;stroke-miterlimit:10;" d="M309.645,22.03c0,1.302-1.056,2.358-2.358,2.358
						c-1.302,0-2.358-1.056-2.358-2.358c0-1.302,1.056-2.358,2.358-2.358C308.589,19.672,309.645,20.728,309.645,22.03z"/>
					<circle style="fill:#A8F8FF;stroke:#222222;stroke-miterlimit:10;" cx="315.82" cy="13.496" r="2.358"/>
				</g>
				<g>
					<path style="fill:#4BFFC6;stroke:#222222;stroke-linecap:round;stroke-linejoin:round;stroke-miterlimit:10;" d="
						M24.55,138.896c-0.921,0.921-2.414,0.921-3.335,0c-0.921-0.921-0.921-2.414,0-3.335c0.921-0.921,2.414-0.921,3.335,0
						C25.471,136.482,25.471,137.975,24.55,138.896z"/>
					<path style="fill:#4BFFC6;stroke:#222222;stroke-linecap:round;stroke-linejoin:round;stroke-miterlimit:10;" d="
						M36.619,138.896c-0.921,0.921-2.414,0.921-3.335,0c-0.921-0.921-0.921-2.414,0-3.335c0.921-0.921,2.414-0.921,3.335,0
						C37.539,136.482,37.539,137.975,36.619,138.896z"/>
					<path style="fill:#4BFFC6;stroke:#222222;stroke-linecap:round;stroke-linejoin:round;stroke-miterlimit:10;" d="
						M48.687,138.896c-0.921,0.921-2.414,0.921-3.335,0c-0.921-0.921-0.921-2.414,0-3.335c0.921-0.921,2.414-0.921,3.335,0
						C49.608,136.482,49.608,137.975,48.687,138.896z"/>
					<path style="fill:#4BFFC6;stroke:#222222;stroke-linecap:round;stroke-linejoin:round;stroke-miterlimit:10;" d="
						M60.756,138.896c-0.921,0.921-2.414,0.921-3.335,0c-0.921-0.921-0.921-2.414,0-3.335c0.921-0.921,2.414-0.921,3.335,0
						C61.677,136.482,61.677,137.975,60.756,138.896z"/>
					<path style="fill:#4BFFC6;stroke:#222222;stroke-linecap:round;stroke-linejoin:round;stroke-miterlimit:10;" d="
						M72.825,138.896c-0.921,0.921-2.414,0.921-3.335,0c-0.921-0.921-0.921-2.414,0-3.335c0.921-0.921,2.414-0.921,3.335,0
						C73.745,136.482,73.745,137.975,72.825,138.896z"/>
				</g>
				<g>
					<path style="fill:#222222;stroke:#222222;stroke-miterlimit:10;" d="M539.5,138.896c-0.921,0.921-2.414,0.921-3.335,0
						c-0.921-0.921-0.921-2.414,0-3.335c0.921-0.921,2.414-0.921,3.335,0C540.421,136.482,540.421,137.975,539.5,138.896z"/>
					<path style="fill:#222222;stroke:#222222;stroke-miterlimit:10;" d="M551.568,138.896c-0.921,0.921-2.414,0.921-3.335,0
						c-0.921-0.921-0.921-2.414,0-3.335c0.921-0.921,2.414-0.921,3.335,0C552.489,136.482,552.489,137.975,551.568,138.896z"/>
					<path style="fill:#222222;stroke:#222222;stroke-miterlimit:10;" d="M563.637,138.896c-0.921,0.921-2.414,0.921-3.335,0
						c-0.921-0.921-0.921-2.414,0-3.335c0.921-0.921,2.414-0.921,3.335,0C564.558,136.482,564.558,137.975,563.637,138.896z"/>
					<path style="fill:#222222;stroke:#222222;stroke-miterlimit:10;" d="M575.706,138.896c-0.921,0.921-2.414,0.921-3.335,0
						c-0.921-0.921-0.921-2.414,0-3.335c0.921-0.921,2.414-0.921,3.335,0C576.627,136.482,576.627,137.975,575.706,138.896z"/>
					<path style="fill:#222222;stroke:#222222;stroke-miterlimit:10;" d="M587.775,138.896c-0.921,0.921-2.414,0.921-3.335,0
						c-0.921-0.921-0.921-2.414,0-3.335c0.921-0.921,2.414-0.921,3.335,0C588.695,136.482,588.695,137.975,587.775,138.896z"/>
				</g>
				<g>
					<circle style="fill:#A8F8FF;stroke:#222222;stroke-miterlimit:10;" cx="454.059" cy="96.006" r="2.358"/>
					<circle style="fill:#A8F8FF;stroke:#222222;stroke-miterlimit:10;" cx="462.592" cy="87.472" r="2.358"/>
					<circle style="fill:#A8F8FF;stroke:#222222;stroke-miterlimit:10;" cx="471.126" cy="78.938" r="2.358"/>
					<path style="fill:#A8F8FF;stroke:#222222;stroke-miterlimit:10;" d="M482.018,70.404c0,1.302-1.056,2.358-2.358,2.358
						c-1.302,0-2.358-1.056-2.358-2.358c0-1.302,1.056-2.358,2.358-2.358C480.962,68.046,482.018,69.102,482.018,70.404z"/>
					<circle style="fill:#A8F8FF;stroke:#222222;stroke-miterlimit:10;" cx="488.194" cy="61.87" r="2.358"/>
				</g>
				
					<rect x="7.434" y="-4.521" style="fill:#ABF2C3;stroke:#222222;stroke-linecap:round;stroke-linejoin:round;stroke-miterlimit:10;" width="46.92" height="51.526"/>
				
					<circle style="fill:#4BFFC6;stroke:#222222;stroke-linecap:round;stroke-linejoin:round;stroke-miterlimit:10;" cx="30.894" cy="47.049" r="12.423"/>
				<path style="fill:#A8F8FF;stroke:#222222;stroke-linecap:round;stroke-linejoin:round;stroke-miterlimit:10;" d="M43.317,47.049
					c0-0.015-0.002-0.029-0.002-0.043H18.473c0,0.015-0.002,0.029-0.002,0.043c0,6.861,5.562,12.423,12.423,12.423
					C37.755,59.472,43.317,53.91,43.317,47.049z"/>
				<path style="fill:#222222;stroke:#222222;stroke-miterlimit:10;" d="M92.437,25.305H54.354V-0.698h60.454v3.632
					C114.808,15.289,104.792,25.305,92.437,25.305z"/>
				<path style="fill:#FFFFFF;stroke:#222222;stroke-linecap:round;stroke-linejoin:round;stroke-miterlimit:10;" d="M92.437,20.246
					H54.354V-5.757h60.454v3.632C114.808,10.23,104.792,20.246,92.437,20.246z"/>
				<path style="fill:#222222;stroke:#222222;stroke-miterlimit:10;" d="M92.437,15.187H54.354v-26.003h60.454v3.632
					C114.808,5.171,104.792,15.187,92.437,15.187z"/>
				<path style="fill:#FFFFFF;stroke:#222222;stroke-linecap:round;stroke-linejoin:round;stroke-miterlimit:10;" d="M92.437,10.127
					H54.354v-26.003h60.454v3.632C114.808,0.112,104.792,10.127,92.437,10.127z"/>
				<path style="fill:#222222;stroke:#222222;stroke-miterlimit:10;" d="M92.437,5.068H54.354v-26.003h60.454v3.632
					C114.808-4.948,104.792,5.068,92.437,5.068z"/>
				
					<ellipse transform="matrix(0.6773 -0.7357 0.7357 0.6773 52.1508 134.7836)" style="fill:#7AD3D0;stroke:#222222;stroke-miterlimit:10;" cx="179.73" cy="7.939" rx="20.266" ry="20.266"/>
				<circle style="fill:#A8F8FF;stroke:#222222;stroke-miterlimit:10;" cx="288.495" cy="137.229" r="3.542"/>
				<circle style="fill:#A8F8FF;stroke:#222222;stroke-miterlimit:10;" cx="155.143" cy="68.752" r="3.542"/>
				
					<circle style="fill:#ABF2C3;stroke:#222222;stroke-linecap:round;stroke-linejoin:round;stroke-miterlimit:10;" cx="384.053" cy="47.005" r="3.542"/>
				<circle style="fill:#A8F8FF;stroke:#222222;stroke-miterlimit:10;" cx="678.556" cy="78.938" r="3.542"/>
				<circle style="fill:#A8F8FF;stroke:#222222;stroke-miterlimit:10;" cx="604.22" cy="11.138" r="3.542"/>
				
					<circle style="fill:#ABF2C3;stroke:#222222;stroke-linecap:round;stroke-linejoin:round;stroke-miterlimit:10;" cx="477.062" cy="134.871" r="3.542"/>
				<g>
					<polygon style="fill:none;stroke:#222222;stroke-miterlimit:10;" points="684.672,-6.839 651.671,3.813 677.396,27.066 					
						"/>
					<polygon style="fill:#7AD3D0;stroke:#222222;stroke-miterlimit:10;" points="684.672,-6.839 697.754,-11.273 682.438,60.601 
						622.989,6.864 622.216,-8.443 674.844,39.127 					"/>
					<polygon style="fill:#CEFBFF;stroke:#222222;stroke-miterlimit:10;" points="677.396,27.066 642.795,-4.21 713.16,-27.983 
						704.596,-35.723 622.216,-8.443 674.844,39.127 					"/>
					<polygon style="fill:#A8F8FF;stroke:#222222;stroke-miterlimit:10;" points="642.795,-4.21 651.671,3.813 697.754,-11.273 
						682.438,60.601 694.935,57.288 713.16,-27.983 					"/>
				</g>
			</g>
			<g>
				<g>
					<polygon style="fill:none;stroke:#222222;stroke-miterlimit:10;" points="373.396,389.416 356.058,419.447 390.735,419.447 
											"/>
					<polygon style="fill:#7AD3D0;stroke:#222222;stroke-miterlimit:10;" points="373.396,389.416 380.129,377.353 416.962,440.944 
						336.826,440.944 325.988,430.106 396.928,430.106 					"/>
					<polygon style="fill:#CEFBFF;stroke:#222222;stroke-miterlimit:10;" points="390.735,419.447 344.093,419.447 380.353,354.627 
						368.809,354.627 325.988,430.106 396.928,430.106 					"/>
					<polygon style="fill:#A8F8FF;stroke:#222222;stroke-miterlimit:10;" points="344.093,419.447 356.058,419.447 380.129,377.353 
						416.962,440.944 424.012,430.106 380.353,354.627 					"/>
				</g>
				<path style="fill:#222222;stroke:#222222;stroke-miterlimit:10;" d="M30.555,480.893v38.083H4.551v-60.454h3.632
					C20.539,458.522,30.555,468.538,30.555,480.893z"/>
				<path style="fill:#FFFFFF;stroke:#222222;stroke-linecap:round;stroke-linejoin:round;stroke-miterlimit:10;" d="
					M25.495,480.893v38.083H-0.508v-60.454h3.632C15.479,458.522,25.495,468.538,25.495,480.893z"/>
				<path style="fill:#222222;stroke:#222222;stroke-miterlimit:10;" d="M20.436,480.893v38.083H-5.567v-60.454h3.632
					C10.42,458.522,20.436,468.538,20.436,480.893z"/>
				<path style="fill:#FFFFFF;stroke:#222222;stroke-linecap:round;stroke-linejoin:round;stroke-miterlimit:10;" d="
					M15.377,480.893v38.083h-26.003l0-60.454h3.632C5.361,458.522,15.377,468.538,15.377,480.893z"/>
				<path style="fill:#222222;stroke:#222222;stroke-miterlimit:10;" d="M10.318,480.893l0,38.083h-26.003v-60.454h3.632
					C0.302,458.522,10.318,468.538,10.318,480.893z"/>
				<g>
					<path style="fill:#ABF2C3;stroke:#222222;stroke-linecap:round;stroke-linejoin:round;stroke-miterlimit:10;" d="
						M621.315,448.542c-0.001,0.104-0.003,0.209-0.003,0.209s-0.284,23.669-0.309,25.762c-1.803-1.061-22.212-13.052-22.212-13.052
						s-0.09-0.053-0.18-0.106c0.001-0.104,0.003-0.209,0.003-0.209s0.284-23.669,0.308-25.761
						c1.805,1.06,22.213,13.051,22.213,13.051S621.225,448.489,621.315,448.542z"/>
					<path style="fill:#4BFFC6;stroke:#222222;stroke-linecap:round;stroke-linejoin:round;stroke-miterlimit:10;" d="
						M576.248,448.051c-0.001,0.104-0.002,0.209-0.002,0.209s-0.18,23.67-0.196,25.763c1.824-1.026,22.464-12.614,22.464-12.614
						s0.091-0.051,0.182-0.102c0.001-0.104,0.002-0.209,0.002-0.209s0.18-23.67,0.198-25.762
						c-1.825,1.025-22.465,12.613-22.465,12.613S576.339,448,576.248,448.051z"/>
					<path style="fill:#A8F8FF;stroke:#222222;stroke-miterlimit:10;" d="M598.44,487.375c-0.09-0.053-0.179-0.107-0.179-0.107
						s-20.356-12.08-22.156-13.149c1.821-1.031,22.409-12.71,22.409-12.71s0.091-0.052,0.182-0.103
						c0.09,0.053,0.18,0.107,0.18,0.107s20.356,12.08,22.156,13.147c-1.821,1.033-22.409,12.711-22.409,12.711
						S598.531,487.323,598.44,487.375z"/>
				</g>
				<g>
					<polygon style="fill:#ABF2C3;stroke:#222222;stroke-linecap:round;stroke-linejoin:round;stroke-miterlimit:10;" points="
						79.968,412.137 36.856,412.449 36.856,393.218 47.02,392.905 47.02,379.189 22.288,379.189 22.288,425.609 79.968,425.609 
											"/>
					<polygon style="fill:#ABF2C3;stroke:#222222;stroke-linecap:round;stroke-linejoin:round;stroke-miterlimit:10;" points="
						60.501,392.905 60.501,379.189 116.844,379.189 116.844,425.609 93.44,425.609 93.44,412.137 104.109,412.036 104.109,392.805 
											"/>
					<polygon style="fill:#222222;stroke:#222222;stroke-miterlimit:10;" points="93.44,392.905 79.968,392.905 79.944,437.956 
						60.478,437.956 60.405,425.609 47.02,425.609 47.02,450.263 93.44,450.263 					"/>
					<polygon style="fill:#222222;stroke:#222222;stroke-miterlimit:10;" points="47.02,412.137 60.493,412.137 60.556,367.667 
						80.031,367.667 79.968,379.189 93.44,379.189 93.44,354.778 47.02,354.778 					"/>
					<path style="fill:#A8F8FF;stroke:#222222;stroke-miterlimit:10;" d="M73.738,406.505c-2.162,2.162-5.668,2.162-7.831,0
						c-2.162-2.162-2.162-5.668,0-7.831c2.162-2.162,5.668-2.162,7.831,0C75.9,400.837,75.9,404.343,73.738,406.505z"/>
				</g>
				<g>
					<polygon style="fill:#ABF2C3;stroke:#222222;stroke-linecap:round;stroke-linejoin:round;stroke-miterlimit:10;" points="
						75.602,484.365 63.341,496.805 57.832,491.295 60.654,488.294 56.725,484.365 49.64,491.45 62.938,504.748 79.462,488.224 
											"/>
					<polygon style="fill:#ABF2C3;stroke:#222222;stroke-linecap:round;stroke-linejoin:round;stroke-miterlimit:10;" points="
						64.516,484.432 60.587,480.503 76.728,464.362 90.026,477.66 83.321,484.365 79.462,480.505 82.489,477.42 76.98,471.911 					
						"/>
					<polygon style="fill:#A8F8FF;stroke:#222222;stroke-miterlimit:10;" points="73.953,474.996 70.093,478.855 82.992,491.768 
						77.415,497.345 73.857,493.828 70.023,497.663 77.086,504.726 90.384,491.427 					"/>
					<polygon style="fill:#A8F8FF;stroke:#222222;stroke-miterlimit:10;" points="66.164,493.803 70.023,489.944 57.302,477.187 
						62.881,471.607 66.164,474.926 70.023,471.066 63.03,464.074 49.732,477.372 					"/>
					<circle style="fill:#A8F8FF;stroke:#222222;stroke-miterlimit:10;" cx="69.961" cy="484.536" r="2.243"/>
				</g>
				<path style="fill:#222222;stroke:#222222;stroke-miterlimit:10;" d="M563.393,490.529c0,24.885-20.174,45.059-45.059,45.059
					s-45.059-20.174-45.059-45.059s20.174-45.059,45.059-45.059S563.393,465.643,563.393,490.529z M518.422,462.465
					c-15.966,0-28.908,12.943-28.908,28.908c0,15.966,12.943,28.908,28.908,28.908c15.966,0,28.908-12.943,28.908-28.908
					C547.33,475.408,534.388,462.465,518.422,462.465z"/>
				<g>
					<path style="fill:#222222;stroke:#222222;stroke-miterlimit:10;" d="M331.491,499.95c-0.004-0.238-0.018-0.473-0.018-0.712
						c0-22.093,17.91-40.002,40.002-40.002c22.093,0,40.002,17.91,40.002,40.002c0,0.239-0.014,0.474-0.018,0.712h10.161
						c0.003-0.238,0.018-0.473,0.018-0.712c0-27.705-22.459-50.164-50.164-50.164c-27.705,0-50.164,22.459-50.164,50.164
						c0,0.239,0.015,0.474,0.018,0.712H331.491z"/>
					<path style="fill:#222222;stroke:#222222;stroke-miterlimit:10;" d="M349.789,499.95c-0.011-0.276-0.021-0.553-0.021-0.831
						c0-11.989,9.719-21.707,21.707-21.707c11.988,0,21.707,9.719,21.707,21.707c0,0.279-0.011,0.555-0.021,0.831h8.529
						c0.008-0.277,0.021-0.553,0.021-0.831c0-16.699-13.537-30.236-30.236-30.236c-16.699,0-30.235,13.537-30.235,30.236
						c0,0.279,0.013,0.554,0.021,0.831H349.789z"/>
					<path style="fill:#222222;stroke:#222222;stroke-miterlimit:10;" d="M365.139,499.95c-0.035-0.273-0.06-0.549-0.06-0.831
						c0-3.532,2.864-6.396,6.396-6.396c3.532,0,6.396,2.863,6.396,6.396c0,0.282-0.025,0.558-0.06,0.831h5.87
						c0.019-0.276,0.042-0.551,0.042-0.831c0-6.764-5.483-12.247-12.247-12.247c-6.764,0-12.247,5.483-12.247,12.247
						c0,0.281,0.023,0.555,0.042,0.831H365.139z"/>
				</g>
				<polygon style="fill:#4BFFC6;stroke:#222222;stroke-linecap:round;stroke-linejoin:round;stroke-miterlimit:10;" points="
					518.334,473.531 522.355,483.064 532.316,480.264 527.37,489.352 535.769,495.394 525.58,497.193 526.093,507.527 
					518.334,500.683 510.574,507.527 511.088,497.193 500.899,495.394 509.298,489.352 504.352,480.264 514.312,483.064 				"/>
				<polygon style="fill:#CEFBFF;stroke:#222222;stroke-miterlimit:10;" points="147.145,448.941 151.166,458.474 161.126,455.675 
					156.18,464.763 164.58,470.804 154.391,472.604 154.904,482.937 147.145,476.093 139.385,482.937 139.898,472.604 
					129.71,470.804 138.109,464.763 133.163,455.675 143.123,458.474 				"/>
				<polygon style="fill:#7AD3D0;stroke:#222222;stroke-miterlimit:10;" points="437.941,357.132 441.962,366.665 451.922,363.865 
					446.977,372.953 455.376,378.995 445.187,380.794 445.7,391.128 437.941,384.284 430.181,391.128 430.694,380.794 
					420.506,378.995 428.905,372.953 423.959,363.865 433.919,366.665 				"/>
				<g>
					
						<rect x="686.425" y="407.083" transform="matrix(0.7071 0.7071 -0.7071 0.7071 512.239 -375.8113)" style="fill:#4BFFC6;stroke:#222222;stroke-linecap:round;stroke-linejoin:round;stroke-miterlimit:10;" width="46.678" height="46.678"/>
					
						<rect x="686.425" y="390.224" transform="matrix(0.7071 0.7071 -0.7071 0.7071 500.3189 -380.7495)" style="fill:none;stroke:#222222;stroke-miterlimit:10;" width="46.678" height="46.678"/>
					
						<rect x="686.425" y="373.364" transform="matrix(0.7071 0.7071 -0.7071 0.7071 488.3965 -385.6872)" style="fill:none;stroke:#222222;stroke-miterlimit:10;" width="46.678" height="46.678"/>
					
						<rect x="686.425" y="356.505" transform="matrix(0.7071 0.7071 -0.7071 0.7071 476.4765 -390.6254)" style="fill:#A8F8FF;stroke:#222222;stroke-miterlimit:10;" width="46.678" height="46.678"/>
					<line style="fill:none;stroke:#222222;stroke-miterlimit:10;" x1="742.77" y1="379.844" x2="742.77" y2="430.422"/>
					<line style="fill:none;stroke:#222222;stroke-miterlimit:10;" x1="676.758" y1="379.844" x2="676.758" y2="430.422"/>
				</g>
				<g>
					<path style="fill:#222222;stroke:#222222;stroke-miterlimit:10;" d="M555.214,367.888l-56.902,56.902l3.33,3.33l56.902-56.902
						C557.434,370.108,556.324,368.998,555.214,367.888z"/>
					<path style="fill:#222222;stroke:#222222;stroke-miterlimit:10;" d="M548.131,360.804l-56.902,56.902
						c1.11,1.11,2.22,2.22,3.33,3.33l56.902-56.902C550.351,363.025,549.241,361.915,548.131,360.804z"/>
					
						<rect x="474.026" y="381.482" transform="matrix(0.7071 -0.7071 0.7071 0.7071 -120.7903 476.0614)" style="fill:#222222;stroke:#222222;stroke-miterlimit:10;" width="80.472" height="4.71"/>
					<polygon style="fill:#222222;stroke:#222222;stroke-miterlimit:10;" points="534.035,346.708 533.894,346.708 477.062,403.54 
						480.393,406.871 537.295,349.969 					"/>
				</g>
				<g>
					<polygon style="fill:#A8F8FF;stroke:#222222;stroke-miterlimit:10;" points="533.637,346.708 703.044,516.115 709.704,516.115 
						540.298,346.708 					"/>
					<polygon style="fill:#A8F8FF;stroke:#222222;stroke-miterlimit:10;" points="547.803,346.708 717.21,516.115 723.871,516.115 
						554.464,346.708 					"/>
					<polygon style="fill:#A8F8FF;stroke:#222222;stroke-miterlimit:10;" points="561.97,346.708 731.376,516.115 738.037,516.115 
						568.631,346.708 					"/>
					<polygon style="fill:#A8F8FF;stroke:#222222;stroke-miterlimit:10;" points="576.136,346.708 745.543,516.115 752.204,516.115 
						582.797,346.708 					"/>
				</g>
				<g>
					<polygon style="fill:#222222;stroke:#222222;stroke-miterlimit:10;" points="192.334,436.106 192.333,641.621 197.044,646.331 
						197.044,440.816 					"/>
					<polygon style="fill:#222222;stroke:#222222;stroke-miterlimit:10;" points="202.351,432.096 202.351,651.638 207.061,656.348 
						207.061,430.563 					"/>
					<polygon style="fill:#222222;stroke:#222222;stroke-miterlimit:10;" points="212.368,428.208 212.368,661.655 217.078,666.365 
						217.078,432.918 					"/>
					<polygon style="fill:#222222;stroke:#222222;stroke-miterlimit:10;" points="222.385,436.106 222.385,671.672 227.095,676.382 
						227.095,440.816 					"/>
				</g>
				<polygon style="fill:#CEFBFF;stroke:#222222;stroke-miterlimit:10;" points="639.874,403.785 696.951,346.708 641.355,346.708 
					612.076,375.987 				"/>
				<rect x="617.189" y="352.72" style="fill:#222222;stroke:#222222;stroke-miterlimit:10;" width="18.649" height="18.649"/>
				<polygon style="fill:#4BFFC6;stroke:#222222;stroke-linecap:round;stroke-linejoin:round;stroke-miterlimit:10;" points="
					617.189,371.369 635.837,371.369 635.837,352.72 635.343,352.72 617.189,370.875 				"/>
				<polygon style="fill:#4BFFC6;stroke:#222222;stroke-linecap:round;stroke-linejoin:round;stroke-miterlimit:10;" points="
					473.8,397.24 473.8,430.668 507.228,430.668 507.228,429.783 474.685,397.24 				"/>
				<g>
					
						<rect x="258.379" y="434.779" transform="matrix(0.7071 0.7071 -0.7071 0.7071 405.4679 -64.6175)" style="fill:#CEFBFF;stroke:#222222;stroke-miterlimit:10;" width="44.711" height="44.711"/>
					<g>
						
							<line style="fill:#4BFFC6;stroke:#222222;stroke-linecap:round;stroke-linejoin:round;stroke-miterlimit:10;" x1="280.734" y1="488.749" x2="280.734" y2="425.519"/>
						
							<line style="fill:#4BFFC6;stroke:#222222;stroke-linecap:round;stroke-linejoin:round;stroke-miterlimit:10;" x1="312.349" y1="457.134" x2="249.119" y2="457.134"/>
						
							<line style="fill:#4BFFC6;stroke:#222222;stroke-linecap:round;stroke-linejoin:round;stroke-miterlimit:10;" x1="264.927" y1="441.327" x2="296.542" y2="472.942"/>
						
							<line style="fill:#4BFFC6;stroke:#222222;stroke-linecap:round;stroke-linejoin:round;stroke-miterlimit:10;" x1="296.542" y1="441.327" x2="264.927" y2="472.942"/>
					</g>
				</g>
				<path style="fill:#4BFFC6;stroke:#222222;stroke-linecap:round;stroke-linejoin:round;stroke-miterlimit:10;" d="
					M209.726,356.047l11.294,26.773l27.974-7.863l-13.891,25.523l23.589,16.969l-28.615,5.053l1.441,29.022l-21.792-19.222
					l-21.792,19.222l1.441-29.022l-28.615-5.053l23.589-16.969l-13.891-25.523l27.974,7.863L209.726,356.047z M203.051,392.742
					l-16.533-4.647l8.209,15.084l-13.941,10.028l16.912,2.987l-0.852,17.152l12.879-11.36l12.879,11.36l-0.852-17.152l16.912-2.987
					l-13.941-10.028l8.209-15.084l-16.533,4.647l-6.675-15.823L203.051,392.742z"/>
				<g>
					<g>
						<polygon style="fill:#4BFFC6;stroke:#222222;stroke-linecap:round;stroke-linejoin:round;stroke-miterlimit:10;" points="
							320.679,374.13 285.67,409.139 320.679,409.139 						"/>
						<polygon style="fill:#222222;stroke:#222222;stroke-miterlimit:10;" points="316.257,369.708 281.248,404.717 
							316.257,404.717 						"/>
						<polygon style="fill:#4BFFC6;stroke:#222222;stroke-linecap:round;stroke-linejoin:round;stroke-miterlimit:10;" points="
							311.835,365.286 276.826,400.295 311.835,400.295 						"/>
						<polygon style="fill:#222222;stroke:#222222;stroke-miterlimit:10;" points="307.413,360.864 272.404,395.873 
							307.413,395.873 						"/>
					</g>
					
						<ellipse transform="matrix(0.2311 -0.9729 0.9729 0.2311 -145.3414 570.8685)" style="fill:#A8F8FF;stroke:#222222;stroke-miterlimit:10;" cx="288.495" cy="377.386" rx="13.365" ry="13.365"/>
					<path style="fill:#CEFBFF;stroke:#222222;stroke-miterlimit:10;" d="M288.495,390.675c7.381,0,13.365-5.984,13.365-13.365
						c0-3.06-1.039-5.87-2.769-8.123l-18.719,18.719C282.625,389.635,285.435,390.675,288.495,390.675z"/>
				</g>
				<g>
					<path style="fill:#4BFFC6;stroke:#222222;stroke-linecap:round;stroke-linejoin:round;stroke-miterlimit:10;" d="
						M523.625,423.671c0,1.302-1.056,2.358-2.358,2.358s-2.358-1.056-2.358-2.358c0-1.302,1.056-2.358,2.358-2.358
						S523.625,422.369,523.625,423.671z"/>
					<path style="fill:#4BFFC6;stroke:#222222;stroke-linecap:round;stroke-linejoin:round;stroke-miterlimit:10;" d="
						M532.159,415.138c0,1.302-1.056,2.358-2.358,2.358c-1.302,0-2.358-1.056-2.358-2.358c0-1.302,1.056-2.358,2.358-2.358
						C531.104,412.78,532.159,413.835,532.159,415.138z"/>
					
						<circle style="fill:#4BFFC6;stroke:#222222;stroke-linecap:round;stroke-linejoin:round;stroke-miterlimit:10;" cx="538.335" cy="406.604" r="2.358"/>
					<path style="fill:#4BFFC6;stroke:#222222;stroke-linecap:round;stroke-linejoin:round;stroke-miterlimit:10;" d="
						M549.227,398.07c0,1.302-1.056,2.358-2.358,2.358c-1.302,0-2.358-1.056-2.358-2.358c0-1.302,1.056-2.358,2.358-2.358
						C548.171,395.712,549.227,396.767,549.227,398.07z"/>
					
						<circle style="fill:#4BFFC6;stroke:#222222;stroke-linecap:round;stroke-linejoin:round;stroke-miterlimit:10;" cx="555.403" cy="389.536" r="2.358"/>
				</g>
				<g>
					<path style="fill:#4BFFC6;stroke:#222222;stroke-linecap:round;stroke-linejoin:round;stroke-miterlimit:10;" d="
						M13.041,425.167c0.921,0.921,0.921,2.414,0,3.335c-0.921,0.921-2.414,0.921-3.335,0s-0.921-2.414,0-3.335
						C10.627,424.246,12.12,424.246,13.041,425.167z"/>
					<path style="fill:#4BFFC6;stroke:#222222;stroke-linecap:round;stroke-linejoin:round;stroke-miterlimit:10;" d="
						M13.041,413.098c0.921,0.921,0.921,2.414,0,3.335c-0.921,0.921-2.414,0.921-3.335,0c-0.921-0.921-0.921-2.414,0-3.335
						C10.627,412.177,12.12,412.177,13.041,413.098z"/>
					<path style="fill:#4BFFC6;stroke:#222222;stroke-linecap:round;stroke-linejoin:round;stroke-miterlimit:10;" d="
						M13.041,401.03c0.921,0.921,0.921,2.414,0,3.335c-0.921,0.921-2.414,0.921-3.335,0c-0.921-0.921-0.921-2.414,0-3.335
						C10.627,400.109,12.12,400.109,13.041,401.03z"/>
					<path style="fill:#4BFFC6;stroke:#222222;stroke-linecap:round;stroke-linejoin:round;stroke-miterlimit:10;" d="
						M13.041,388.961c0.921,0.921,0.921,2.414,0,3.335c-0.921,0.921-2.414,0.921-3.335,0s-0.921-2.414,0-3.335
						S12.12,388.04,13.041,388.961z"/>
					
						<circle style="fill:#4BFFC6;stroke:#222222;stroke-linecap:round;stroke-linejoin:round;stroke-miterlimit:10;" cx="11.374" cy="378.56" r="2.358"/>
				</g>
				<g>
					<path style="fill:#A8F8FF;stroke:#222222;stroke-miterlimit:10;" d="M434.924,505.123c0.921,0.921,0.921,2.414,0,3.335
						c-0.921,0.921-2.414,0.921-3.335,0c-0.921-0.921-0.921-2.414,0-3.335C432.511,504.202,434.004,504.202,434.924,505.123z"/>
					<path style="fill:#A8F8FF;stroke:#222222;stroke-miterlimit:10;" d="M434.924,493.054c0.921,0.921,0.921,2.414,0,3.335
						c-0.921,0.921-2.414,0.921-3.335,0c-0.921-0.921-0.921-2.414,0-3.335C432.511,492.133,434.004,492.133,434.924,493.054z"/>
					<circle style="fill:#A8F8FF;stroke:#222222;stroke-miterlimit:10;" cx="433.257" cy="482.653" r="2.358"/>
					<circle style="fill:#A8F8FF;stroke:#222222;stroke-miterlimit:10;" cx="433.257" cy="470.584" r="2.358"/>
					<circle style="fill:#A8F8FF;stroke:#222222;stroke-miterlimit:10;" cx="433.257" cy="458.515" r="2.358"/>
				</g>
				
					<circle style="fill:#4BFFC6;stroke:#222222;stroke-linecap:round;stroke-linejoin:round;stroke-miterlimit:10;" cx="143.603" cy="373.248" r="3.542"/>
				<circle style="fill:#A8F8FF;stroke:#222222;stroke-miterlimit:10;" cx="447.068" cy="415.138" r="3.542"/>
				<path style="fill:#A8F8FF;stroke:#222222;stroke-miterlimit:10;" d="M577.58,418.679c0,1.956-1.586,3.542-3.542,3.542
					c-1.956,0-3.542-1.586-3.542-3.542c0-1.956,1.586-3.542,3.542-3.542C575.995,415.138,577.58,416.723,577.58,418.679z"/>
				<circle style="fill:#A8F8FF;stroke:#222222;stroke-miterlimit:10;" cx="735.679" cy="468.883" r="3.542"/>
			</g>
		</g>
	</g>
</g>
</svg>
